<?xml version="1.0" encoding="utf-8"?>
<!-- Generator: Adobe Illustrator 21.1.0, SVG Export Plug-In . SVG Version: 6.00 Build 0)  -->
<svg version="1.1" id="Layer_1" xmlns="http://www.w3.org/2000/svg" xmlns:xlink="http://www.w3.org/1999/xlink" x="0px" y="0px"
	 width="94px" height="93.5px" viewBox="0 0 94 93.5" style="enable-background:new 0 0 94 93.5;" xml:space="preserve">
<style type="text/css">
	.st0{fill:#1C1E35;}
	.st1{fill:#143A6B;}
	.st2{fill:#34DDEC;}
	.st3{fill:#5FFDC5;}
	.st4{fill:#153A6B;}
	.st5{fill:#F36262;}
	.st6{fill:#FEAF01;}
	.st7{fill:#FFFFFF;}
</style>
<g>
	<g>
		<path class="st0" d="M15.6,72.8c0-0.1-0.1-0.1-0.1-0.2c0-0.1-0.1-0.2-0.1-0.3c-2.4-6.8-4.8-13.6-7.2-20.4
			c-0.7-2.1-1.5-4.2-2.2-6.3c0.1-0.2,0.1-0.4,0.2-0.5c1-2.1,2-4.2,3-6.3c1.8-3.8,3.6-7.5,5.4-11.3c1.5-3.2,3.1-6.5,4.6-9.7
			c0,0,0.1-0.1,0.1-0.1c0.2-0.1,0.4-0.1,0.5-0.2c8.2-2.9,16.4-5.9,24.7-8.8c1.9-0.7,3.8-1.4,5.7-2.1c0.1,0,0.2,0,0.3,0
			c0.1,0.1,0.2,0.2,0.3,0.2c0.9,0.4,1.8,0.8,2.7,1.3c2.9,1.4,5.9,2.8,8.8,4.2c3.6,1.7,7.1,3.4,10.7,5.1c0.8,0.4,1.6,0.7,2.4,1
			c0,0.1,0.1,0.1,0.1,0.2c0.1,0.2,0.1,0.4,0.2,0.6c2.9,8,5.7,16,8.6,24c0.7,2.1,1.5,4.2,2.2,6.3c-0.1,0.2-0.2,0.5-0.3,0.7
			c-1,2.2-2.1,4.4-3.1,6.6c-1.8,3.8-3.7,7.7-5.5,11.5c-1.3,2.8-2.7,5.6-4,8.4c-0.1,0.2-0.1,0.4-0.1,0.5c0,0,0,0,0,0
			c0,0-0.1,0-0.1,0.1c0,0,0,0,0,0c-0.1,0-0.1,0-0.2,0c-7.7,2.8-15.5,5.5-23.2,8.3c-1.2,0.4-2.4,0.9-3.5,1.3c-0.1,0-0.1,0-0.2,0
			c-0.2-0.1-0.4-0.2-0.6-0.3c-2.8-1.3-5.6-2.6-8.4-4c-3.9-1.8-7.7-3.7-11.6-5.5c-2.8-1.3-5.6-2.7-8.4-4C16.6,73.1,16.1,73,15.6,72.8
			z"/>
		<path class="st1" d="M15.6,72.8c0.5,0.2,1,0.4,1.5,0.6c2.8,1.3,5.6,2.7,8.4,4c3.9,1.8,7.7,3.7,11.6,5.5c2.8,1.3,5.6,2.6,8.4,4
			c0.2,0.1,0.4,0.2,0.6,0.3c-2.1,0.8-4.1,1.5-6.2,2.3c-2.6,0.9-5.3,1.9-7.9,2.8c-4.6,1.6-9.6-0.7-11.3-5.3c-1.7-4.6-3.3-9.3-5-14
			C15.7,72.9,15.7,72.9,15.6,72.8z"/>
		<path class="st2" d="M50.2,6.6c-1.9,0.7-3.8,1.4-5.7,2.1c-8.2,2.9-16.4,5.9-24.7,8.8c-0.2,0.1-0.4,0.1-0.5,0.2
			c0.9-2,1.8-4,2.8-5.9c1.1-2.3,2.2-4.5,3.2-6.8c2.1-4.5,7.4-6.5,12-4.5c4.3,1.9,8.5,4,12.7,6C50,6.5,50.1,6.6,50.2,6.6z"/>
		<path class="st3" d="M86.4,49.6c-0.7-2.1-1.5-4.2-2.2-6.3c-2.8-8-5.7-16-8.6-24c-0.1-0.2-0.1-0.4-0.2-0.6c0.8,0.3,1.5,0.7,2.3,1
			c3.5,1.7,7.1,3.3,10.6,5c4.5,2.2,6.4,7.6,4.3,12.1C90.6,41.1,88.5,45.4,86.4,49.6C86.5,49.6,86.5,49.6,86.4,49.6z"/>
		<path class="st4" d="M19.1,17.7c-1.5,3.2-3.1,6.5-4.6,9.7c-1.8,3.8-3.6,7.5-5.4,11.3c-1,2.1-2,4.2-3,6.3C6.1,45.2,6,45.4,6,45.6
			c0,0,0,0-0.1,0c-1.2-3.5-2.5-7-3.7-10.5c-0.5-1.4-1-2.7-1.1-4.2c-0.2-3.8,2.1-7.4,5.7-8.7c4.1-1.5,8.2-2.9,12.2-4.4
			C19,17.7,19.1,17.7,19.1,17.7z"/>
		<path class="st4" d="M86.4,49.6C86.5,49.6,86.5,49.6,86.4,49.6c0.8,2.1,1.6,4.3,2.3,6.4c0.8,2.2,1.7,4.4,2.3,6.7
			c1.2,4.4-1.2,8.9-5.5,10.4c-4,1.5-7.9,2.8-11.9,4.3c-0.1,0-0.2,0-0.3,0.1c0-0.2,0-0.4,0.1-0.5c1.3-2.8,2.7-5.6,4-8.4
			c1.8-3.8,3.7-7.7,5.5-11.5c1.1-2.2,2.1-4.4,3.1-6.6C86.3,50.1,86.4,49.9,86.4,49.6z"/>
		<path class="st5" d="M46.2,87.2c1.2-0.4,2.4-0.9,3.5-1.3c7.7-2.8,15.5-5.5,23.2-8.3c0.1,0,0.1,0,0.2,0c-1.6,3.4-3.2,6.8-4.9,10.2
			c-2.1,4.4-7.4,6.3-11.8,4.3c-3.4-1.6-6.8-3.2-10.1-4.8C46.4,87.3,46.3,87.2,46.2,87.2z"/>
		<path class="st6" d="M5.9,45.6C5.9,45.6,6,45.6,5.9,45.6c0.8,2.1,1.5,4.2,2.3,6.3c2.4,6.8,4.8,13.6,7.2,20.4
			c0,0.1,0.1,0.2,0.1,0.3c-2.6-1.2-5.3-2.5-7.9-3.7c-0.7-0.3-1.4-0.7-2.1-1C0.9,65.7-1,60.3,1.1,55.7C2.7,52.3,4.3,49,5.9,45.6z"/>
		<path class="st4" d="M75.3,18.4c-0.8-0.3-1.6-0.7-2.4-1c-3.6-1.7-7.1-3.4-10.7-5.1c-2.9-1.4-5.9-2.8-8.8-4.2
			c-0.9-0.4-1.8-0.8-2.7-1.3c-0.1-0.1-0.2-0.2-0.3-0.2c2.3-0.8,4.6-1.7,6.8-2.5c1.5-0.5,3-1.1,4.5-1.5c4.3-0.9,8.4,1.5,10,5.6
			c1.2,3.3,2.4,6.6,3.5,9.9C75.3,18.2,75.3,18.3,75.3,18.4z"/>
		<path class="st4" d="M73.3,77.5c0,0,0.1,0,0.1-0.1C73.4,77.5,73.3,77.5,73.3,77.5z"/>
	</g>
</g>
<g>
	<g>
		<g>
			<path class="st7" d="M62,32.4H30.8c-1.8,0-3.3,1.5-3.3,3.3v20.3c0,1.8,1.5,3.3,3.3,3.3H62c1.8,0,3.3-1.5,3.3-3.3V35.7
				C65.3,33.9,63.9,32.4,62,32.4z M63.1,56.1c0,0.6-0.5,1.1-1.1,1.1H30.8c-0.6,0-1.1-0.5-1.1-1.1V40.1h33.4
				C63.1,40.1,63.1,56.1,63.1,56.1z M63.1,37.9H29.7v-2.2c0-0.6,0.5-1.1,1.1-1.1H62c0.6,0,1.1,0.5,1.1,1.1
				C63.1,35.7,63.1,37.9,63.1,37.9z"/>
		</g>
	</g>
	<g>
		<g>
			<path class="st7" d="M40.2,43c-2,0-3.6,1.6-3.6,3.6v4.8c0,0.6,0.5,1.1,1.1,1.1c0.6,0,1.1-0.5,1.1-1.1v-2.1h2.7v2.1
				c0,0.6,0.5,1.1,1.1,1.1c0.6,0,1.1-0.5,1.1-1.1v-4.9C43.8,44.6,42.2,43,40.2,43z M41.6,47.1h-2.7v-0.5l0,0c0-0.7,0.6-1.4,1.4-1.4
				s1.4,0.6,1.4,1.4L41.6,47.1L41.6,47.1z"/>
		</g>
	</g>
	<g>
		<g>
			<path class="st7" d="M49.3,43h-2.9c-0.6,0-1.1,0.5-1.1,1.1v7.3c0,0.6,0.5,1.1,1.1,1.1s1.1-0.5,1.1-1.1v-2.1h1.8
				c1.8,0,3.2-1.4,3.2-3.2C52.5,44.4,51,43,49.3,43z M49.3,47.1h-1.8v-1.9h1.8c0.5,0,0.9,0.4,0.9,0.9C50.3,46.7,49.9,47.1,49.3,47.1
				z"/>
		</g>
	</g>
	<g>
		<g>
			<path class="st7" d="M55.1,43c-0.6,0-1.1,0.5-1.1,1.1v7.3c0,0.6,0.5,1.1,1.1,1.1c0.6,0,1.1-0.5,1.1-1.1v-7.3
				C56.2,43.5,55.7,43,55.1,43z"/>
		</g>
	</g>
</g>
</svg>
