<?xml version="1.0" encoding="utf-8"?>
<!-- Generator: Adobe Illustrator 21.1.0, SVG Export Plug-In . SVG Version: 6.00 Build 0)  -->
<svg version="1.1" id="Layer_1" xmlns="http://www.w3.org/2000/svg" xmlns:xlink="http://www.w3.org/1999/xlink" x="0px" y="0px"
	 width="94px" height="93.5px" viewBox="0 0 94 93.5" style="enable-background:new 0 0 94 93.5;" xml:space="preserve">
<style type="text/css">
	.st0{fill:#1C1E35;}
	.st1{fill:#143A6B;}
	.st2{fill:#34DDEC;}
	.st3{fill:#5FFDC5;}
	.st4{fill:#153A6B;}
	.st5{fill:#F36262;}
	.st6{fill:#FEAF01;}
	.st7{fill:#FFFFFF;}
</style>
<g>
	<g>
		<path class="st0" d="M15.6,73.8c0-0.1-0.1-0.1-0.1-0.2c0-0.1-0.1-0.2-0.1-0.3c-2.4-6.8-4.8-13.6-7.2-20.4
			c-0.7-2.1-1.5-4.2-2.2-6.3c0.1-0.2,0.1-0.4,0.2-0.5c1-2.1,2-4.2,3-6.3c1.8-3.8,3.6-7.5,5.4-11.3c1.5-3.2,3.1-6.5,4.6-9.7
			c0,0,0.1-0.1,0.1-0.1c0.2-0.1,0.4-0.1,0.5-0.2c8.2-2.9,16.4-5.9,24.7-8.8c1.9-0.7,3.8-1.4,5.7-2.1c0.1,0,0.2,0,0.3,0
			c0.1,0.1,0.2,0.2,0.3,0.2c0.9,0.4,1.8,0.8,2.7,1.3c2.9,1.4,5.9,2.8,8.8,4.2c3.6,1.7,7.1,3.4,10.7,5.1c0.8,0.4,1.6,0.7,2.4,1
			c0,0.1,0.1,0.1,0.1,0.2c0.1,0.2,0.1,0.4,0.2,0.6c2.9,8,5.7,16,8.6,24c0.7,2.1,1.5,4.2,2.2,6.3c-0.1,0.2-0.2,0.5-0.3,0.7
			c-1,2.2-2.1,4.4-3.1,6.6c-1.8,3.8-3.7,7.7-5.5,11.5c-1.3,2.8-2.7,5.6-4,8.4c-0.1,0.2-0.1,0.4-0.1,0.5c0,0,0,0,0,0
			c0,0-0.1,0-0.1,0.1c0,0,0,0,0,0c-0.1,0-0.1,0-0.2,0c-7.7,2.8-15.5,5.5-23.2,8.3c-1.2,0.4-2.4,0.9-3.5,1.3c-0.1,0-0.1,0-0.2,0
			c-0.2-0.1-0.4-0.2-0.6-0.3c-2.8-1.3-5.6-2.6-8.4-4c-3.9-1.8-7.7-3.7-11.6-5.5c-2.8-1.3-5.6-2.7-8.4-4C16.6,74.1,16.1,74,15.6,73.8
			z"/>
		<path class="st1" d="M15.6,73.8c0.5,0.2,1,0.4,1.5,0.6c2.8,1.3,5.6,2.7,8.4,4c3.9,1.8,7.7,3.7,11.6,5.5c2.8,1.3,5.6,2.6,8.4,4
			c0.2,0.1,0.4,0.2,0.6,0.3c-2.1,0.8-4.1,1.5-6.2,2.3c-2.6,0.9-5.3,1.9-7.9,2.8c-4.6,1.6-9.6-0.7-11.3-5.3c-1.7-4.6-3.3-9.3-5-14
			C15.7,73.9,15.7,73.9,15.6,73.8z"/>
		<path class="st2" d="M50.2,7.6c-1.9,0.7-3.8,1.4-5.7,2.1c-8.2,2.9-16.4,5.9-24.7,8.8c-0.2,0.1-0.4,0.1-0.5,0.2
			c0.9-2,1.8-4,2.8-5.9c1.1-2.3,2.2-4.5,3.2-6.8c2.1-4.5,7.4-6.5,12-4.5c4.3,1.9,8.5,4,12.7,6C50,7.5,50.1,7.6,50.2,7.6z"/>
		<path class="st3" d="M86.4,50.6c-0.7-2.1-1.5-4.2-2.2-6.3c-2.8-8-5.7-16-8.6-24c-0.1-0.2-0.1-0.4-0.2-0.6c0.8,0.3,1.5,0.7,2.3,1
			c3.5,1.7,7.1,3.3,10.6,5c4.5,2.2,6.4,7.6,4.3,12.1C90.6,42.1,88.5,46.4,86.4,50.6C86.5,50.6,86.5,50.6,86.4,50.6z"/>
		<path class="st4" d="M19.1,18.7c-1.5,3.2-3.1,6.5-4.6,9.7c-1.8,3.8-3.6,7.5-5.4,11.3c-1,2.1-2,4.2-3,6.3C6.1,46.2,6,46.4,6,46.6
			c0,0,0,0-0.1,0c-1.2-3.5-2.5-7-3.7-10.5c-0.5-1.4-1-2.7-1.1-4.2c-0.2-3.8,2.1-7.4,5.7-8.7c4.1-1.5,8.2-2.9,12.2-4.4
			C19,18.7,19.1,18.7,19.1,18.7z"/>
		<path class="st4" d="M86.4,50.6C86.5,50.6,86.5,50.6,86.4,50.6c0.8,2.1,1.6,4.3,2.3,6.4c0.8,2.2,1.7,4.4,2.3,6.7
			c1.2,4.4-1.2,8.9-5.5,10.4c-4,1.5-7.9,2.8-11.9,4.3c-0.1,0-0.2,0-0.3,0.1c0-0.2,0-0.4,0.1-0.5c1.3-2.8,2.7-5.6,4-8.4
			c1.8-3.8,3.7-7.7,5.5-11.5c1.1-2.2,2.1-4.4,3.1-6.6C86.3,51.1,86.4,50.9,86.4,50.6z"/>
		<path class="st5" d="M46.2,88.2c1.2-0.4,2.4-0.9,3.5-1.3c7.7-2.8,15.5-5.5,23.2-8.3c0.1,0,0.1,0,0.2,0c-1.6,3.4-3.2,6.8-4.9,10.2
			c-2.1,4.4-7.4,6.3-11.8,4.3c-3.4-1.6-6.8-3.2-10.1-4.8C46.4,88.3,46.3,88.2,46.2,88.2z"/>
		<path class="st6" d="M5.9,46.6C5.9,46.6,6,46.6,5.9,46.6c0.8,2.1,1.5,4.2,2.3,6.3c2.4,6.8,4.8,13.6,7.2,20.4
			c0,0.1,0.1,0.2,0.1,0.3c-2.6-1.2-5.3-2.5-7.9-3.7c-0.7-0.3-1.4-0.7-2.1-1C0.9,66.7-1,61.3,1.1,56.7C2.7,53.3,4.3,50,5.9,46.6z"/>
		<path class="st4" d="M75.3,19.4c-0.8-0.3-1.6-0.7-2.4-1c-3.6-1.7-7.1-3.4-10.7-5.1c-2.9-1.4-5.9-2.8-8.8-4.2
			c-0.9-0.4-1.8-0.8-2.7-1.3c-0.1-0.1-0.2-0.2-0.3-0.2c2.3-0.8,4.6-1.7,6.8-2.5c1.5-0.5,3-1.1,4.5-1.5c4.3-0.9,8.4,1.5,10,5.6
			c1.2,3.3,2.4,6.6,3.5,9.9C75.3,19.2,75.3,19.3,75.3,19.4z"/>
		<path class="st4" d="M73.3,78.5c0,0,0.1,0,0.1-0.1C73.4,78.5,73.3,78.5,73.3,78.5z"/>
	</g>
</g>
<g>
	<path class="st7" d="M58.1,36.5c0-0.1,0-0.2-0.1-0.3c-0.1-0.2-0.3-0.4-0.5-0.4l-12.8-6.2c-0.2-0.1-0.5-0.1-0.7,0l-12.9,6.3
		c-0.3,0.1-0.4,0.4-0.4,0.7l0,0c0,0,0,0,0,0v15.7c0,0.3,0.2,0.6,0.4,0.7l12.9,6.3l0,0c0,0,0,0,0.1,0c0,0,0,0,0,0s0,0,0.1,0
		c0,0,0,0,0,0s0,0,0.1,0c0,0,0,0,0,0s0.1,0,0.1,0h0.1c0,0,0,0,0,0s0,0,0.1,0c0,0,0,0,0,0s0,0,0.1,0c0,0,0,0,0,0s0,0,0.1,0l0,0
		l13-6.3c0.3-0.1,0.4-0.4,0.4-0.7L58.1,36.5C58.1,36.5,58.1,36.5,58.1,36.5z M44.4,31.1l11.2,5.4l-4.1,2l-11.2-5.4L44.4,31.1z
		 M44.4,42l-11.2-5.5l5.4-2.6l11.2,5.4L44.4,42z M32.2,37.8l11.4,5.5v14l-11.4-5.5V37.8z M45.1,57.3v-14l5.4-2.6v3.7
		c0,0.4,0.3,0.8,0.8,0.8s0.8-0.3,0.8-0.8v-4.4l4.6-2.2v14L45.1,57.3z"/>
</g>
</svg>
