<?xml version="1.0" encoding="utf-8"?>
<!-- Generator: Adobe Illustrator 21.1.0, SVG Export Plug-In . SVG Version: 6.00 Build 0)  -->
<svg version="1.1" id="Layer_1" xmlns="http://www.w3.org/2000/svg" xmlns:xlink="http://www.w3.org/1999/xlink" x="0px" y="0px"
	 width="94px" height="93.5px" viewBox="0 0 94 93.5" style="enable-background:new 0 0 94 93.5;" xml:space="preserve">
<style type="text/css">
	.st0{fill:#1C1E35;}
	.st1{fill:#143A6B;}
	.st2{fill:#34DDEC;}
	.st3{fill:#5FFDC5;}
	.st4{fill:#153A6B;}
	.st5{fill:#F36262;}
	.st6{fill:#FEAF01;}
	.st7{fill:#FFFFFF;}
</style>
<g>
	<g>
		<path class="st0" d="M15.4,73.7c0-0.1-0.1-0.1-0.1-0.2c0-0.1-0.1-0.2-0.1-0.3c-2.4-6.8-4.8-13.6-7.2-20.4
			c-0.7-2.1-1.5-4.2-2.2-6.3c0.1-0.2,0.1-0.4,0.2-0.5c1-2.1,2-4.2,3-6.3c1.8-3.8,3.6-7.5,5.4-11.3c1.5-3.2,3.1-6.5,4.6-9.7
			c0,0,0.1-0.1,0.1-0.1c0.2-0.1,0.4-0.1,0.5-0.2c8.2-2.9,16.4-5.9,24.7-8.8c1.9-0.7,3.8-1.4,5.7-2.1c0.1,0,0.2,0,0.3,0
			c0.1,0.1,0.2,0.2,0.3,0.2c0.9,0.4,1.8,0.8,2.7,1.3c2.9,1.4,5.9,2.8,8.8,4.2c3.6,1.7,7.1,3.4,10.7,5.1c0.8,0.4,1.6,0.7,2.4,1
			c0,0.1,0.1,0.1,0.1,0.2c0.1,0.2,0.1,0.4,0.2,0.6c2.9,8,5.7,16,8.6,24c0.7,2.1,1.5,4.2,2.2,6.3c-0.1,0.2-0.2,0.5-0.3,0.7
			c-1,2.2-2.1,4.4-3.1,6.6c-1.8,3.8-3.7,7.7-5.5,11.5c-1.3,2.8-2.7,5.6-4,8.4c-0.1,0.2-0.1,0.4-0.1,0.5c0,0,0,0,0,0
			c0,0-0.1,0-0.1,0.1c0,0,0,0,0,0c-0.1,0-0.1,0-0.2,0C65,81.3,57.3,84,49.5,86.8c-1.2,0.4-2.4,0.9-3.5,1.3c-0.1,0-0.1,0-0.2,0
			c-0.2-0.1-0.4-0.2-0.6-0.3c-2.8-1.3-5.6-2.6-8.4-4c-3.9-1.8-7.7-3.7-11.6-5.5c-2.8-1.3-5.6-2.7-8.4-4C16.4,74,15.9,73.9,15.4,73.7
			z"/>
		<path class="st1" d="M15.4,73.7c0.5,0.2,1,0.4,1.5,0.6c2.8,1.3,5.6,2.7,8.4,4c3.9,1.8,7.7,3.7,11.6,5.5c2.8,1.3,5.6,2.6,8.4,4
			c0.2,0.1,0.4,0.2,0.6,0.3c-2.1,0.8-4.1,1.5-6.2,2.3c-2.6,0.9-5.3,1.9-7.9,2.8c-4.6,1.6-9.6-0.7-11.3-5.3c-1.7-4.6-3.3-9.3-5-14
			C15.4,73.8,15.4,73.8,15.4,73.7z"/>
		<path class="st2" d="M49.9,7.5c-1.9,0.7-3.8,1.4-5.7,2.1c-8.2,2.9-16.4,5.9-24.7,8.8c-0.2,0.1-0.4,0.1-0.5,0.2
			c0.9-2,1.8-4,2.8-5.9c1.1-2.3,2.2-4.5,3.2-6.8c2.1-4.5,7.4-6.5,12-4.5c4.3,1.9,8.5,4,12.7,6C49.8,7.4,49.8,7.5,49.9,7.5z"/>
		<path class="st3" d="M86.2,50.5c-0.7-2.1-1.5-4.2-2.2-6.3c-2.8-8-5.7-16-8.6-24c-0.1-0.2-0.1-0.4-0.2-0.6c0.8,0.3,1.5,0.7,2.3,1
			c3.5,1.7,7.1,3.3,10.6,5c4.5,2.2,6.4,7.6,4.3,12.1C90.3,42,88.3,46.3,86.2,50.5C86.2,50.5,86.2,50.5,86.2,50.5z"/>
		<path class="st4" d="M18.9,18.6c-1.5,3.2-3.1,6.5-4.6,9.7c-1.8,3.8-3.6,7.5-5.4,11.3c-1,2.1-2,4.2-3,6.3c-0.1,0.2-0.1,0.4-0.2,0.5
			c0,0,0,0-0.1,0c-1.2-3.5-2.5-7-3.7-10.5c-0.5-1.4-1-2.7-1.1-4.2c-0.2-3.8,2.1-7.4,5.7-8.7c4.1-1.5,8.2-2.9,12.2-4.4
			C18.8,18.6,18.8,18.6,18.9,18.6z"/>
		<path class="st4" d="M86.2,50.5C86.2,50.5,86.2,50.5,86.2,50.5c0.8,2.1,1.6,4.3,2.3,6.4c0.8,2.2,1.7,4.4,2.3,6.7
			C92,68,89.6,72.5,85.3,74c-4,1.5-7.9,2.8-11.9,4.3c-0.1,0-0.2,0-0.3,0.1c0-0.2,0-0.4,0.1-0.5c1.3-2.8,2.7-5.6,4-8.4
			c1.8-3.8,3.7-7.7,5.5-11.5c1.1-2.2,2.1-4.4,3.1-6.6C86,51,86.1,50.8,86.2,50.5z"/>
		<path class="st5" d="M46,88.1c1.2-0.4,2.4-0.9,3.5-1.3c7.7-2.8,15.5-5.5,23.2-8.3c0.1,0,0.1,0,0.2,0c-1.6,3.4-3.2,6.8-4.9,10.2
			C66,93.1,60.7,95,56.3,93c-3.4-1.6-6.8-3.2-10.1-4.8C46.1,88.2,46,88.1,46,88.1z"/>
		<path class="st6" d="M5.7,46.5C5.7,46.5,5.7,46.5,5.7,46.5c0.8,2.1,1.5,4.2,2.3,6.3c2.4,6.8,4.8,13.6,7.2,20.4
			c0,0.1,0.1,0.2,0.1,0.3c-2.6-1.2-5.3-2.5-7.9-3.7c-0.7-0.3-1.4-0.7-2.1-1c-4.6-2.2-6.5-7.6-4.3-12.2C2.5,53.2,4.1,49.9,5.7,46.5z"
			/>
		<path class="st4" d="M75.1,19.3c-0.8-0.3-1.6-0.7-2.4-1c-3.6-1.7-7.1-3.4-10.7-5.1c-2.9-1.4-5.9-2.8-8.8-4.2
			c-0.9-0.4-1.8-0.8-2.7-1.3c-0.1-0.1-0.2-0.2-0.3-0.2C52.5,6.7,54.8,5.8,57,5c1.5-0.5,3-1.1,4.5-1.5c4.3-0.9,8.4,1.5,10,5.6
			c1.2,3.3,2.4,6.6,3.5,9.9C75.1,19.1,75.1,19.2,75.1,19.3z"/>
		<path class="st4" d="M73,78.4c0,0,0.1,0,0.1-0.1C73.1,78.4,73.1,78.4,73,78.4z"/>
	</g>
</g>
<g>
	<g>
		<g>
			<path class="st7" d="M59.5,56.9c-0.1-0.1-0.3-0.2-0.5-0.2c-0.2,0-0.3,0.1-0.5,0.2c-0.1,0.1-0.2,0.3-0.2,0.5s0.1,0.3,0.2,0.5
				c0.1,0.1,0.3,0.2,0.5,0.2c0.2,0,0.3-0.1,0.5-0.2c0.1-0.1,0.2-0.3,0.2-0.5S59.7,57,59.5,56.9z"/>
		</g>
	</g>
	<g>
		<g>
			<path class="st7" d="M42.5,58.9c-1.4,0-2.6,1.2-2.6,2.6c0,1.4,1.2,2.6,2.6,2.6c1.4,0,2.6-1.2,2.6-2.6C45.1,60,44,58.9,42.5,58.9z
				 M42.5,62.7c-0.7,0-1.2-0.6-1.2-1.2c0-0.7,0.6-1.2,1.2-1.2c0.6,0,1.2,0.6,1.2,1.2C43.8,62.1,43.2,62.7,42.5,62.7z"/>
		</g>
	</g>
	<g>
		<g>
			<path class="st7" d="M55,58.9c-1.4,0-2.6,1.2-2.6,2.6c0,1.4,1.2,2.6,2.6,2.6c1.4,0,2.6-1.2,2.6-2.6C57.6,60,56.4,58.9,55,58.9z
				 M55,62.7c-0.7,0-1.2-0.6-1.2-1.2c0-0.7,0.6-1.2,1.2-1.2c0.7,0,1.2,0.6,1.2,1.2C56.2,62.1,55.7,62.7,55,62.7z"/>
		</g>
	</g>
	<g>
		<g>
			<path class="st7" d="M61.1,47.3c-0.4-0.1-0.7,0.2-0.8,0.5l-1,5.1c-0.1,0.3-0.3,0.6-0.7,0.6H39.1l-2.6-11.6h7
				c0.4,0,0.7-0.3,0.7-0.7s-0.3-0.7-0.7-0.7h-7.3l-0.7-3.1c-0.2-0.9-1-1.6-2-1.6h-3.3c-0.4,0-0.7,0.3-0.7,0.7s0.3,0.7,0.7,0.7h3.3
				c0.3,0,0.6,0.2,0.7,0.5l4.6,19.8c0.1,0.3,0.3,0.5,0.7,0.5h17.3c0.4,0,0.7-0.3,0.7-0.7s-0.3-0.7-0.7-0.7H39.8l-0.5-1.9h19.3
				c1,0,1.8-0.7,2-1.7l1-5.1C61.8,47.7,61.5,47.3,61.1,47.3z"/>
		</g>
	</g>
	<g>
		<g>
			<path class="st7" d="M63.9,38.5c0.4-0.7,0.3-1.6-0.3-2.2L63,35.6c-0.1-0.1-0.1-0.2-0.1-0.3l0.1-0.9c0.1-0.8-0.5-1.5-1.2-1.8
				l-0.9-0.3c-0.1,0-0.2-0.1-0.3-0.2l-0.4-0.9c-0.3-0.8-1.1-1.2-2-1l-0.9,0.2c-0.1,0-0.2,0-0.3-0.1l-0.7-0.6c-0.6-0.5-1.5-0.5-2.2,0
				l-0.7,0.5c-0.1,0.1-0.2,0.1-0.3,0.1L52,30.2c-0.8-0.2-1.6,0.3-2,1l-0.4,0.9c0,0.1-0.2,0.2-0.3,0.2l-0.9,0.3
				c-0.8,0.2-1.3,1-1.2,1.8l0.1,0.9c0,0.1,0,0.2-0.1,0.3l-0.7,0.7c-0.6,0.6-0.7,1.5-0.3,2.2l0.5,0.8c0.1,0.1,0.1,0.2,0,0.3l-0.3,0.9
				c-0.3,0.8,0.1,1.6,0.8,2l0.8,0.5c0.1,0.1,0.2,0.2,0.2,0.3l0.2,0.9c0.2,0.8,0.8,1.4,1.6,1.5l0.9,0c0.1,0,0.2,0.1,0.3,0.2l0.6,0.8
				c0.3,0.5,0.9,0.7,1.4,0.7c0.3,0,0.5,0,0.7-0.2l0.8-0.4c0.1,0,0.2,0,0.3,0l0.8,0.4c0.8,0.3,1.6,0.1,2.2-0.5l0.6-0.8
				c0.1-0.1,0.2-0.2,0.3-0.2l0.9,0c0.8,0,1.5-0.6,1.6-1.5l0.2-0.9c0-0.1,0.1-0.2,0.2-0.3l0.8-0.5c0.7-0.4,1-1.2,0.8-2l-0.3-0.9
				c0-0.1,0-0.2,0-0.3L63.9,38.5z M62.7,37.7l-0.5,0.8c-0.3,0.5-0.3,1-0.2,1.5l0.3,0.9c0.1,0.2,0,0.4-0.2,0.5l-0.8,0.5
				c-0.5,0.3-0.8,0.7-0.8,1.2L60.4,44c0,0.2-0.2,0.3-0.4,0.3l-0.9,0c-0.5,0-1,0.3-1.3,0.7l-0.6,0.8C57.1,46,56.9,46,56.7,46
				l-0.8-0.4c-0.5-0.2-1-0.2-1.5,0L53.6,46c-0.2,0.1-0.4,0-0.5-0.1l-0.6-0.8c-0.3-0.4-0.8-0.7-1.3-0.7l-0.9,0
				c-0.2,0-0.3-0.2-0.4-0.3l-0.2-0.9c-0.1-0.5-0.4-0.9-0.8-1.2L48,41.4c-0.2-0.1-0.2-0.3-0.2-0.5l0.3-0.9c0.2-0.5,0.1-1-0.2-1.5
				l-0.5-0.8c-0.1-0.2-0.1-0.4,0.1-0.5l0.7-0.7c0.4-0.4,0.6-0.9,0.5-1.4l-0.1-0.9c0-0.2,0.1-0.3,0.3-0.4l0.9-0.3
				c0.5-0.2,0.9-0.5,1.1-1l0.4-0.9c0.1-0.2,0.2-0.2,0.4-0.2c0,0,0,0,0.1,0l0.9,0.2c0.5,0.1,1,0,1.4-0.3l0.7-0.6
				c0.2-0.1,0.3-0.1,0.5,0l0.7,0.5c0.4,0.3,0.9,0.5,1.4,0.3l0.9-0.2c0.2,0,0.4,0.1,0.5,0.2l0.4,0.9c0.2,0.5,0.6,0.8,1.1,1l0.9,0.3
				c0.2,0,0.3,0.2,0.3,0.4l-0.1,0.9c0,0.5,0.2,1,0.5,1.4l0.7,0.7C62.8,37.4,62.8,37.6,62.7,37.7z"/>
		</g>
	</g>
	<g>
		<g>
			<path class="st7" d="M56.7,35.2c-0.3-0.2-0.8-0.1-0.9,0.3l-3.1,5.6c-0.2,0.3-0.1,0.8,0.3,0.9c0.1,0.1,0.2,0.1,0.3,0.1
				c0.2,0,0.5-0.1,0.6-0.3l3.1-5.6C57.1,35.8,57,35.4,56.7,35.2z"/>
		</g>
	</g>
	<g>
		<g>
			<path class="st7" d="M57.2,38.8c-1,0-1.8,0.8-1.8,1.8c0,1,0.8,1.8,1.8,1.8c1,0,1.8-0.8,1.8-1.8S58.1,38.8,57.2,38.8z M57.2,41
				c-0.2,0-0.4-0.2-0.4-0.4c0-0.2,0.2-0.4,0.4-0.4c0.2,0,0.4,0.2,0.4,0.4C57.6,40.8,57.4,41,57.2,41z"/>
		</g>
	</g>
	<g>
		<g>
			<path class="st7" d="M53.1,34.3c-1,0-1.8,0.8-1.8,1.8c0,1,0.8,1.8,1.8,1.8c1,0,1.8-0.8,1.8-1.8S54,34.3,53.1,34.3z M53.1,36.5
				c-0.2,0-0.4-0.2-0.4-0.4c0-0.2,0.2-0.4,0.4-0.4c0.2,0,0.4,0.2,0.4,0.4C53.5,36.3,53.3,36.5,53.1,36.5z"/>
		</g>
	</g>
</g>
</svg>
