<?xml version="1.0" encoding="utf-8"?>
<!-- Generator: Adobe Illustrator 21.1.0, SVG Export Plug-In . SVG Version: 6.00 Build 0)  -->
<svg version="1.1" id="Layer_1" xmlns="http://www.w3.org/2000/svg" xmlns:xlink="http://www.w3.org/1999/xlink" x="0px" y="0px"
	 width="94px" height="93.5px" viewBox="0 0 94 93.5" style="enable-background:new 0 0 94 93.5;" xml:space="preserve">
<style type="text/css">
	.st0{fill:#1C1E35;}
	.st1{fill:#143A6B;}
	.st2{fill:#34DDEC;}
	.st3{fill:#5FFDC5;}
	.st4{fill:#153A6B;}
	.st5{fill:#F36262;}
	.st6{fill:#FEAF01;}
	.st7{fill:#FFFFFF;}
</style>
<g>
	<g>
		<path class="st0" d="M16.3,73.5c0-0.1-0.1-0.1-0.1-0.2c0-0.1-0.1-0.2-0.1-0.3c-2.4-6.8-4.8-13.6-7.2-20.4
			c-0.7-2.1-1.5-4.2-2.2-6.3c0.1-0.2,0.1-0.4,0.2-0.5c1-2.1,2-4.2,3-6.3c1.8-3.8,3.6-7.5,5.4-11.3c1.5-3.2,3.1-6.5,4.6-9.7
			c0,0,0.1-0.1,0.1-0.1c0.2-0.1,0.4-0.1,0.5-0.2c8.2-2.9,16.4-5.9,24.7-8.8C47,8.7,48.9,8,50.8,7.3c0.1,0,0.2,0,0.3,0
			c0.1,0.1,0.2,0.2,0.3,0.2C52.3,8,53.1,8.4,54,8.8c2.9,1.4,5.9,2.8,8.8,4.2c3.6,1.7,7.1,3.4,10.7,5.1c0.8,0.4,1.6,0.7,2.4,1
			c0,0.1,0.1,0.1,0.1,0.2c0.1,0.2,0.1,0.4,0.2,0.6c2.9,8,5.7,16,8.6,24c0.7,2.1,1.5,4.2,2.2,6.3c-0.1,0.2-0.2,0.5-0.3,0.7
			c-1,2.2-2.1,4.4-3.1,6.6c-1.8,3.8-3.7,7.7-5.5,11.5c-1.3,2.8-2.7,5.6-4,8.4c-0.1,0.2-0.1,0.4-0.1,0.5c0,0,0,0,0,0
			c0,0-0.1,0-0.1,0.1c0,0,0,0,0,0c-0.1,0-0.1,0-0.2,0c-7.7,2.8-15.5,5.5-23.2,8.3c-1.2,0.4-2.4,0.9-3.5,1.3c-0.1,0-0.1,0-0.2,0
			c-0.2-0.1-0.4-0.2-0.6-0.3c-2.8-1.3-5.6-2.6-8.4-4c-3.9-1.8-7.7-3.7-11.6-5.5c-2.8-1.3-5.6-2.7-8.4-4
			C17.3,73.8,16.8,73.7,16.3,73.5z"/>
		<path class="st1" d="M16.3,73.5c0.5,0.2,1,0.4,1.5,0.6c2.8,1.3,5.6,2.7,8.4,4c3.9,1.8,7.7,3.7,11.6,5.5c2.8,1.3,5.6,2.6,8.4,4
			c0.2,0.1,0.4,0.2,0.6,0.3c-2.1,0.8-4.1,1.5-6.2,2.3c-2.6,0.9-5.3,1.9-7.9,2.8c-4.6,1.6-9.6-0.7-11.3-5.3c-1.7-4.6-3.3-9.3-5-14
			C16.3,73.6,16.3,73.6,16.3,73.5z"/>
		<path class="st2" d="M50.8,7.3C48.9,8,47,8.7,45.1,9.4c-8.2,2.9-16.4,5.9-24.7,8.8c-0.2,0.1-0.4,0.1-0.5,0.2c0.9-2,1.8-4,2.8-5.9
			c1.1-2.3,2.2-4.5,3.2-6.8c2.1-4.5,7.4-6.5,12-4.5c4.3,1.9,8.5,4,12.7,6C50.7,7.2,50.7,7.3,50.8,7.3z"/>
		<path class="st3" d="M87.1,50.3c-0.7-2.1-1.5-4.2-2.2-6.3c-2.8-8-5.7-16-8.6-24c-0.1-0.2-0.1-0.4-0.2-0.6c0.8,0.3,1.5,0.7,2.3,1
			c3.5,1.7,7.1,3.3,10.6,5c4.5,2.2,6.4,7.6,4.3,12.1C91.2,41.8,89.2,46.1,87.1,50.3C87.1,50.3,87.1,50.3,87.1,50.3z"/>
		<path class="st4" d="M19.8,18.4c-1.5,3.2-3.1,6.5-4.6,9.7c-1.8,3.8-3.6,7.5-5.4,11.3c-1,2.1-2,4.2-3,6.3c-0.1,0.2-0.1,0.4-0.2,0.5
			c0,0,0,0-0.1,0c-1.2-3.5-2.5-7-3.7-10.5c-0.5-1.4-1-2.7-1.1-4.2c-0.2-3.8,2.1-7.4,5.7-8.7c4.1-1.5,8.2-2.9,12.2-4.4
			C19.7,18.4,19.7,18.4,19.8,18.4z"/>
		<path class="st4" d="M87.1,50.3C87.1,50.3,87.1,50.3,87.1,50.3c0.8,2.1,1.6,4.3,2.3,6.4c0.8,2.2,1.7,4.4,2.3,6.7
			c1.2,4.4-1.2,8.9-5.5,10.4c-4,1.5-7.9,2.8-11.9,4.3c-0.1,0-0.2,0-0.3,0.1c0-0.2,0-0.4,0.1-0.5c1.3-2.8,2.7-5.6,4-8.4
			c1.8-3.8,3.7-7.7,5.5-11.5c1.1-2.2,2.1-4.4,3.1-6.6C86.9,50.8,87,50.6,87.1,50.3z"/>
		<path class="st5" d="M46.9,87.9c1.2-0.4,2.4-0.9,3.5-1.3c7.7-2.8,15.5-5.5,23.2-8.3c0.1,0,0.1,0,0.2,0c-1.6,3.4-3.2,6.8-4.9,10.2
			c-2.1,4.4-7.4,6.3-11.8,4.3c-3.4-1.6-6.8-3.2-10.1-4.8C47,88,46.9,87.9,46.9,87.9z"/>
		<path class="st6" d="M6.5,46.3C6.6,46.3,6.6,46.3,6.5,46.3c0.8,2.1,1.5,4.2,2.3,6.3c2.4,6.8,4.8,13.6,7.2,20.4
			c0,0.1,0.1,0.2,0.1,0.3c-2.6-1.2-5.3-2.5-7.9-3.7c-0.7-0.3-1.4-0.7-2.1-1C1.5,66.4-0.4,61,1.8,56.4C3.4,53,5,49.7,6.5,46.3z"/>
		<path class="st4" d="M76,19.1c-0.8-0.3-1.6-0.7-2.4-1c-3.6-1.7-7.1-3.4-10.7-5.1c-2.9-1.4-5.9-2.8-8.8-4.2
			c-0.9-0.4-1.8-0.8-2.7-1.3c-0.1-0.1-0.2-0.2-0.3-0.2c2.3-0.8,4.6-1.7,6.8-2.5c1.5-0.5,3-1.1,4.5-1.5c4.3-0.9,8.4,1.5,10,5.6
			c1.2,3.3,2.4,6.6,3.5,9.9C75.9,18.9,76,19,76,19.1z"/>
		<path class="st4" d="M73.9,78.2c0,0,0.1,0,0.1-0.1C74,78.2,74,78.2,73.9,78.2z"/>
	</g>
</g>
<g>
	<g>
		<g>
			<path class="st7" d="M58.1,35.7c-3.2-3.2-7.5-5-12-5s-8.8,1.8-12,5c-3.2,3.2-5,7.5-5,12s1.8,8.8,5,12c3.2,3.2,7.5,5,12,5
				s8.8-1.8,12-5c3.2-3.2,5-7.5,5-12S61.3,38.9,58.1,35.7z M61.7,47h-4.6l0,0c-0.2-2.6-1.2-4.9-2.8-6.6l3.2-3.2
				C60.1,39.7,61.6,43.2,61.7,47z M46.8,32c3.8,0.2,7.3,1.7,9.9,4.1l-3.2,3.2c-1.8-1.6-4.1-2.6-6.7-2.8C46.8,36.6,46.8,32,46.8,32z
				 M45.5,32v4.6c-2.6,0.2-4.9,1.2-6.7,2.8l-3.2-3.2C38.2,33.7,41.6,32.2,45.5,32z M34.6,37.1l3.2,3.2c-1.6,1.8-2.6,4.1-2.8,6.7
				h-4.6C30.6,43.2,32.2,39.7,34.6,37.1z M30.4,48.3h1c0.1,2.1,0.7,4.3,1.6,6.2c0.1,0.2,0.3,0.4,0.6,0.4c0.1,0,0.2,0,0.3-0.1
				c0.3-0.2,0.5-0.6,0.3-0.9c-0.9-1.7-1.4-3.7-1.5-5.6h2.3c0.2,2.6,1.2,4.9,2.8,6.7l-3.2,3.2C32.1,55.7,30.6,52.2,30.4,48.3z
				 M45.5,63.4c-3.8-0.2-7.3-1.7-9.9-4.1l3.2-3.2c1.8,1.6,4.1,2.6,6.7,2.8L45.5,63.4L45.5,63.4z M36.3,47.7c0-2.7,1.1-5.1,2.8-6.9
				l0,0l0,0c1.8-1.7,4.2-2.8,6.9-2.8c5.4,0,9.8,4.4,9.8,9.8s-4.4,9.8-9.8,9.8S36.3,53.1,36.3,47.7z M46.8,63.4v-4.6l0,0
				c2.6-0.2,4.9-1.2,6.7-2.8l3.2,3.2C54,61.7,50.6,63.2,46.8,63.4z M57.7,58.3l-3.2-3.2c1.6-1.8,2.6-4.1,2.8-6.7h4.5
				C61.6,52.2,60.1,55.7,57.7,58.3z"/>
		</g>
	</g>
	<g>
		<g>
			<path class="st7" d="M35.4,55.9C35.4,55.8,35.4,55.8,35.4,55.9c-0.3-0.4-0.7-0.4-1-0.2c-0.3,0.2-0.3,0.6-0.2,0.9
				c0.1,0.2,0.3,0.3,0.6,0.3c0.1,0,0.2,0,0.3-0.1C35.5,56.6,35.6,56.2,35.4,55.9z"/>
		</g>
	</g>
	<g>
		<g>
			<path class="st7" d="M46.2,54.9L46.2,54.9L46.2,54.9c-0.4,0-0.7,0.3-0.7,0.7s0.3,0.7,0.7,0.7l0,0h0c0.4,0,0.7-0.3,0.7-0.7
				C46.8,55.2,46.5,54.9,46.2,54.9z"/>
		</g>
	</g>
	<g>
		<g>
			<path class="st7" d="M52.1,41.6c-1.6-1.6-3.8-2.5-6.1-2.5c-4.7,0-8.5,3.9-8.5,8.6c0,1.8,0.6,3.5,1.6,4.9c1,1.4,2.4,2.5,4.1,3
				c0.1,0,0.2,0,0.2,0c0.3,0,0.5-0.2,0.6-0.5c0.1-0.3,0-0.7-0.4-0.9c-2.8-1-4.7-3.8-4.8-6.8c0-3.9,3.2-7.2,7.2-7.2
				c1.9,0,3.8,0.7,5.1,2.1c1.4,1.4,2.1,3.2,2.2,5.1c0,3-1.8,5.7-4.7,6.8c-0.3,0.1-0.5,0.5-0.4,0.9c0.1,0.3,0.5,0.5,0.9,0.4
				c1.6-0.6,3-1.7,4-3.1c1-1.5,1.5-3.2,1.5-5C54.6,45.3,53.7,43.2,52.1,41.6z"/>
		</g>
	</g>
	<g>
		<g>
			<path class="st7" d="M50.7,50.8h-2.3c1.3-1.2,3-3.1,3-4.7c0-1.5-1.2-2.7-2.7-2.7s-2.7,1.2-2.7,2.7c0,0.4,0.3,0.7,0.7,0.7
				c0.4,0,0.7-0.3,0.7-0.7c0-0.8,0.6-1.4,1.4-1.4c0.8,0,1.4,0.6,1.4,1.4c0,1.4-2.4,3.7-3.8,4.9c-0.2,0.2-0.3,0.5-0.2,0.8
				c0.1,0.3,0.3,0.5,0.6,0.5h4.1c0.4,0,0.7-0.3,0.7-0.7S51,50.8,50.7,50.8z"/>
		</g>
	</g>
	<g>
		<g>
			<path class="st7" d="M44.1,47.7l1.1-1.1c0.3-0.3,0.3-0.7,0-0.9c-0.3-0.3-0.7-0.3-0.9,0l-1.1,1.1L42,45.6c-0.3-0.3-0.7-0.3-0.9,0
				c-0.3,0.3-0.3,0.7,0,0.9l1.1,1.1l-1.1,1.1c-0.3,0.3-0.3,0.7,0,0.9c0.1,0.1,0.3,0.2,0.5,0.2c0.2,0,0.3-0.1,0.5-0.2l1.1-1.1
				l1.1,1.1c0.1,0.1,0.3,0.2,0.5,0.2s0.3-0.1,0.5-0.2c0.3-0.3,0.3-0.7,0-0.9L44.1,47.7z"/>
		</g>
	</g>
</g>
</svg>
