<?xml version="1.0" encoding="utf-8"?>
<!-- Generator: Adobe Illustrator 21.1.0, SVG Export Plug-In . SVG Version: 6.00 Build 0)  -->
<svg version="1.1" id="Layer_1" xmlns="http://www.w3.org/2000/svg" xmlns:xlink="http://www.w3.org/1999/xlink" x="0px" y="0px"
	 width="94px" height="93.5px" viewBox="0 0 94 93.5" style="enable-background:new 0 0 94 93.5;" xml:space="preserve">
<style type="text/css">
	.st0{fill:#1C1E35;}
	.st1{fill:#143A6B;}
	.st2{fill:#34DDEC;}
	.st3{fill:#5FFDC5;}
	.st4{fill:#153A6B;}
	.st5{fill:#F36262;}
	.st6{fill:#FEAF01;}
	.st7{fill:#FFFFFF;}
</style>
<g>
	<g>
		<path class="st0" d="M15.1,73.4c0-0.1-0.1-0.1-0.1-0.2c0-0.1-0.1-0.2-0.1-0.3c-2.4-6.8-4.8-13.6-7.2-20.4
			c-0.7-2.1-1.5-4.2-2.2-6.3c0.1-0.2,0.1-0.4,0.2-0.5c1-2.1,2-4.2,3-6.3c1.8-3.8,3.6-7.5,5.4-11.3c1.5-3.2,3.1-6.5,4.6-9.7
			c0,0,0.1-0.1,0.1-0.1c0.2-0.1,0.4-0.1,0.5-0.2c8.2-2.9,16.4-5.9,24.7-8.8c1.9-0.7,3.8-1.4,5.7-2.1c0.1,0,0.2,0,0.3,0
			c0.1,0.1,0.2,0.2,0.3,0.2c0.9,0.4,1.8,0.8,2.7,1.3c2.9,1.4,5.9,2.8,8.8,4.2c3.6,1.7,7.1,3.4,10.7,5.1c0.8,0.4,1.6,0.7,2.4,1
			c0,0.1,0.1,0.1,0.1,0.2c0.1,0.2,0.1,0.4,0.2,0.6c2.9,8,5.7,16,8.6,24c0.7,2.1,1.5,4.2,2.2,6.3c-0.1,0.2-0.2,0.5-0.3,0.7
			c-1,2.2-2.1,4.4-3.1,6.6c-1.8,3.8-3.7,7.7-5.5,11.5c-1.3,2.8-2.7,5.6-4,8.4c-0.1,0.2-0.1,0.4-0.1,0.5c0,0,0,0,0,0
			c0,0-0.1,0-0.1,0.1c0,0,0,0,0,0c-0.1,0-0.1,0-0.2,0C64.8,81,57,83.7,49.3,86.5c-1.2,0.4-2.4,0.9-3.5,1.3c-0.1,0-0.1,0-0.2,0
			c-0.2-0.1-0.4-0.2-0.6-0.3c-2.8-1.3-5.6-2.6-8.4-4c-3.9-1.8-7.7-3.7-11.6-5.5c-2.8-1.3-5.6-2.7-8.4-4
			C16.1,73.7,15.6,73.6,15.1,73.4z"/>
		<path class="st1" d="M15.1,73.4c0.5,0.2,1,0.4,1.5,0.6c2.8,1.3,5.6,2.7,8.4,4c3.9,1.8,7.7,3.7,11.6,5.5c2.8,1.3,5.6,2.6,8.4,4
			c0.2,0.1,0.4,0.2,0.6,0.3c-2.1,0.8-4.1,1.5-6.2,2.3c-2.6,0.9-5.3,1.9-7.9,2.8c-4.6,1.6-9.6-0.7-11.3-5.3c-1.7-4.6-3.3-9.3-5-14
			C15.2,73.6,15.2,73.5,15.1,73.4z"/>
		<path class="st2" d="M49.7,7.2c-1.9,0.7-3.8,1.4-5.7,2.1c-8.2,2.9-16.4,5.9-24.7,8.8c-0.2,0.1-0.4,0.1-0.5,0.2
			c0.9-2,1.8-4,2.8-5.9c1.1-2.3,2.2-4.5,3.2-6.8C26.9,1,32.2-1,36.7,1c4.3,1.9,8.5,4,12.7,6C49.5,7.1,49.6,7.2,49.7,7.2z"/>
		<path class="st3" d="M86,50.2c-0.7-2.1-1.5-4.2-2.2-6.3c-2.8-8-5.7-16-8.6-24c-0.1-0.2-0.1-0.4-0.2-0.6c0.8,0.3,1.5,0.7,2.3,1
			c3.5,1.7,7.1,3.3,10.6,5c4.5,2.2,6.4,7.6,4.3,12.1C90.1,41.7,88,46,86,50.2C86,50.2,86,50.2,86,50.2z"/>
		<path class="st4" d="M18.6,18.3c-1.5,3.2-3.1,6.5-4.6,9.7c-1.8,3.8-3.6,7.5-5.4,11.3c-1,2.1-2,4.2-3,6.3c-0.1,0.2-0.1,0.4-0.2,0.5
			c0,0,0,0-0.1,0c-1.2-3.5-2.5-7-3.7-10.5c-0.5-1.4-1-2.7-1.1-4.2c-0.2-3.8,2.1-7.4,5.7-8.7c4.1-1.5,8.2-2.9,12.2-4.4
			C18.5,18.3,18.6,18.3,18.6,18.3z"/>
		<path class="st4" d="M86,50.2C86,50.2,86,50.2,86,50.2c0.8,2.1,1.6,4.3,2.3,6.4c0.8,2.2,1.7,4.4,2.3,6.7c1.2,4.4-1.2,8.9-5.5,10.4
			c-4,1.5-7.9,2.8-11.9,4.3c-0.1,0-0.2,0-0.3,0.1c0-0.2,0-0.4,0.1-0.5c1.3-2.8,2.7-5.6,4-8.4c1.8-3.8,3.7-7.7,5.5-11.5
			c1.1-2.2,2.1-4.4,3.1-6.6C85.8,50.7,85.9,50.5,86,50.2z"/>
		<path class="st5" d="M45.7,87.8c1.2-0.4,2.4-0.9,3.5-1.3c7.7-2.8,15.5-5.5,23.2-8.3c0.1,0,0.1,0,0.2,0c-1.6,3.4-3.2,6.8-4.9,10.2
			c-2.1,4.4-7.4,6.3-11.8,4.3c-3.4-1.6-6.8-3.2-10.1-4.8C45.9,87.9,45.8,87.8,45.7,87.8z"/>
		<path class="st6" d="M5.4,46.2C5.4,46.2,5.5,46.2,5.4,46.2c0.8,2.1,1.5,4.2,2.3,6.3c2.4,6.8,4.8,13.6,7.2,20.4
			c0,0.1,0.1,0.2,0.1,0.3c-2.6-1.2-5.3-2.5-7.9-3.7c-0.7-0.3-1.4-0.7-2.1-1c-4.6-2.2-6.5-7.6-4.3-12.2C2.2,52.9,3.8,49.6,5.4,46.2z"
			/>
		<path class="st4" d="M74.8,19c-0.8-0.3-1.6-0.7-2.4-1c-3.6-1.7-7.1-3.4-10.7-5.1c-2.9-1.4-5.9-2.8-8.8-4.2
			c-0.9-0.4-1.8-0.8-2.7-1.3c-0.1-0.1-0.2-0.2-0.3-0.2c2.3-0.8,4.6-1.7,6.8-2.5c1.5-0.5,3-1.1,4.5-1.5c4.3-0.9,8.4,1.5,10,5.6
			c1.2,3.3,2.4,6.6,3.5,9.9C74.8,18.8,74.8,18.9,74.8,19z"/>
		<path class="st4" d="M72.8,78.1c0,0,0.1,0,0.1-0.1C72.9,78.1,72.8,78.1,72.8,78.1z"/>
	</g>
</g>
<g>
	<g>
		<path class="st7" d="M58.9,35.9H33.2c-1.4,0-2.5,1.1-2.5,2.5v2.4c0,0.3,0.2,0.5,0.5,0.5c0.3,0,0.5-0.2,0.5-0.5v-2.4
			c0-0.8,0.6-1.4,1.4-1.4h25.7c0.8,0,1.4,0.6,1.4,1.4v16c0,0.3,0.2,0.5,0.5,0.5c0.3,0,0.5-0.2,0.5-0.5v-16
			C61.4,37,60.3,35.9,58.9,35.9z"/>
	</g>
</g>
<g>
	<g>
		<path class="st7" d="M60.8,55.9c-0.3,0-0.5,0.2-0.5,0.5c0,0.8-0.6,1.4-1.4,1.4H33.2c-0.8,0-1.4-0.6-1.4-1.4V42.9
			c0-0.3-0.2-0.5-0.5-0.5c-0.3,0-0.5,0.2-0.5,0.5v13.5c0,1.4,1.1,2.5,2.5,2.5h10.3l-0.7,2.7h-2.6c-0.3,0-0.5,0.2-0.5,0.5
			c0,0.3,0.2,0.5,0.5,0.5h3h5.6h3c0.3,0,0.5-0.2,0.5-0.5c0-0.3-0.2-0.5-0.5-0.5h-2.6l-0.7-2.7h10.3c1.4,0,2.5-1.1,2.5-2.5
			C61.4,56.1,61.1,55.9,60.8,55.9z M43.9,61.7l0.7-2.7h2.9l0.7,2.7H43.9z"/>
	</g>
</g>
<g>
	<g>
		<path class="st7" d="M59,55.1H33c-0.3,0-0.5,0.2-0.5,0.5c0,0.3,0.2,0.5,0.5,0.5h26c0.3,0,0.5-0.2,0.5-0.5
			C59.6,55.4,59.3,55.1,59,55.1z"/>
	</g>
</g>
<g>
	<g>
		<path class="st7" d="M59,38.6H33c-0.3,0-0.5,0.2-0.5,0.5s0.2,0.5,0.5,0.5h26c0.3,0,0.5-0.2,0.5-0.5C59.6,38.8,59.3,38.6,59,38.6z"
			/>
	</g>
</g>
<g>
	<g>
		<path class="st7" d="M47.3,42.8h-1.8l0,0c-0.3,0-0.5,0.2-0.5,0.5v8.2c0,0.3,0.2,0.5,0.5,0.5s0.5-0.2,0.5-0.5v-2.1h1.3
			c1.1,0,2-0.9,2-2v-2.7C49.2,43.7,48.3,42.8,47.3,42.8z M48.2,47.5c0,0.5-0.4,0.9-0.9,0.9H46v-4.5h1.3c0.5,0,0.9,0.4,0.9,0.9V47.5z
			"/>
	</g>
</g>
<g>
	<g>
		<path class="st7" d="M42.9,51.4l-0.7-2.6c-0.1-0.3-0.4-0.5-0.7-0.4c-0.3,0.1-0.5,0.4-0.4,0.7l0.1,0.2h-1.9l1-3.8l0.5,2
			c0.1,0.3,0.4,0.5,0.7,0.4s0.5-0.4,0.4-0.7l-1-4c-0.1-0.2-0.3-0.4-0.5-0.4s-0.5,0.2-0.5,0.4l-2.1,8.2C37.6,51.7,37.7,52,38,52
			c0,0,0.1,0,0.1,0c0.2,0,0.5-0.2,0.5-0.4l0.3-1.3h2.5l0.3,1.3c0.1,0.2,0.3,0.4,0.5,0.4c0,0,0.1,0,0.1,0
			C42.8,52,42.9,51.7,42.9,51.4z"/>
	</g>
</g>
<g>
	<g>
		<path class="st7" d="M53.9,51H53v-7.1h0.9c0.3,0,0.5-0.2,0.5-0.5s-0.2-0.5-0.5-0.5h-3c-0.3,0-0.5,0.2-0.5,0.5s0.2,0.5,0.5,0.5h0.9
			V51H51c-0.3,0-0.5,0.2-0.5,0.5S50.7,52,51,52h3c0.3,0,0.5-0.2,0.5-0.5C54.5,51.2,54.2,51,53.9,51z"/>
	</g>
</g>
</svg>
