<?xml version="1.0" encoding="utf-8"?>
<!-- Generator: Adobe Illustrator 21.1.0, SVG Export Plug-In . SVG Version: 6.00 Build 0)  -->
<svg version="1.1" id="Layer_1" xmlns="http://www.w3.org/2000/svg" xmlns:xlink="http://www.w3.org/1999/xlink" x="0px" y="0px"
	 viewBox="0 0 49 49" style="enable-background:new 0 0 49 49;" xml:space="preserve">
<style type="text/css">
	.st0{fill:#1C1E35;}
	.st1{fill:#143A6B;}
	.st2{fill:#34DDEC;}
	.st3{fill:#5FFDC5;}
	.st4{fill:#153A6B;}
	.st5{fill:#F36262;}
	.st6{fill:#FEAF01;}
</style>
<g>
	<g>
		<path class="st0" d="M8.1,38.4C8.1,38.4,8,38.3,8.1,38.4C8,38.3,8,38.2,8,38.1C6.7,34.6,5.4,31,4.2,27.5c-0.4-1.1-0.8-2.2-1.2-3.3
			c0-0.1,0.1-0.2,0.1-0.3c0.5-1.1,1-2.2,1.6-3.3c0.9-2,1.9-4,2.8-5.9c0.8-1.7,1.6-3.4,2.4-5.1c0,0,0,0,0.1-0.1c0.1,0,0.2,0,0.3-0.1
			c4.3-1.5,8.6-3.1,12.9-4.6c1-0.4,2-0.7,3-1.1c0,0,0.1,0,0.1,0c0.1,0,0.1,0.1,0.2,0.1C27,4,27.4,4.2,27.9,4.5
			c1.5,0.7,3.1,1.5,4.6,2.2c1.9,0.9,3.7,1.8,5.6,2.7c0.4,0.2,0.8,0.4,1.3,0.5c0,0,0.1,0.1,0.1,0.1c0,0.1,0.1,0.2,0.1,0.3
			c1.5,4.2,3,8.4,4.5,12.6c0.4,1.1,0.8,2.2,1.2,3.3c0,0.1-0.1,0.3-0.1,0.4c-0.5,1.2-1.1,2.3-1.7,3.5c-1,2-1.9,4-2.9,6.1
			c-0.7,1.5-1.4,2.9-2.1,4.4c0,0.1,0,0.2-0.1,0.3c0,0,0,0,0,0c0,0,0,0-0.1,0c0,0,0,0,0,0c0,0-0.1,0-0.1,0c-4.1,1.4-8.1,2.9-12.2,4.3
			c-0.6,0.2-1.2,0.5-1.9,0.7c0,0-0.1,0-0.1,0c-0.1-0.1-0.2-0.1-0.3-0.2c-1.5-0.7-2.9-1.4-4.4-2.1c-2-1-4.1-1.9-6.1-2.9
			c-1.5-0.7-2.9-1.4-4.4-2.1C8.6,38.6,8.3,38.5,8.1,38.4z"/>
		<path class="st1" d="M8.1,38.4c0.3,0.1,0.5,0.2,0.8,0.3c1.5,0.7,2.9,1.4,4.4,2.1c2,1,4.1,1.9,6.1,2.9c1.5,0.7,2.9,1.4,4.4,2.1
			c0.1,0.1,0.2,0.1,0.3,0.2c-1.1,0.4-2.2,0.8-3.3,1.2c-1.4,0.5-2.8,1-4.1,1.5c-2.4,0.9-5.1-0.4-5.9-2.8C9.8,43.4,9,41,8.1,38.6
			C8.1,38.5,8.1,38.5,8.1,38.4z"/>
		<path class="st2" d="M26.2,3.7c-1,0.4-2,0.7-3,1.1c-4.3,1.5-8.6,3.1-12.9,4.6c-0.1,0-0.2,0.1-0.3,0.1c0.5-1,1-2.1,1.5-3.1
			C12,5.1,12.6,4,13.1,2.8c1.1-2.4,3.9-3.4,6.3-2.3c2.2,1,4.5,2.1,6.7,3.2C26.1,3.6,26.2,3.7,26.2,3.7z"/>
		<path class="st3" d="M45.3,26.3c-0.4-1.1-0.8-2.2-1.2-3.3c-1.5-4.2-3-8.4-4.5-12.6c0-0.1-0.1-0.2-0.1-0.3c0.4,0.2,0.8,0.3,1.2,0.5
			c1.9,0.9,3.7,1.8,5.6,2.6c2.4,1.1,3.4,4,2.2,6.4C47.4,21.8,46.4,24,45.3,26.3C45.3,26.3,45.3,26.3,45.3,26.3z"/>
		<path class="st4" d="M9.9,9.5c-0.8,1.7-1.6,3.4-2.4,5.1c-0.9,2-1.9,4-2.8,5.9c-0.5,1.1-1.1,2.2-1.6,3.3C3.1,24,3,24.1,3,24.1
			c0,0,0,0,0,0c-0.7-1.8-1.3-3.7-2-5.5c-0.3-0.7-0.5-1.4-0.6-2.2c-0.1-2,1.1-3.9,3-4.6C5.5,11,7.7,10.3,9.9,9.5
			C9.9,9.5,9.9,9.5,9.9,9.5z"/>
		<path class="st4" d="M45.3,26.3C45.3,26.3,45.3,26.3,45.3,26.3c0.4,1.1,0.8,2.2,1.2,3.4c0.4,1.2,0.9,2.3,1.2,3.5
			c0.6,2.3-0.6,4.7-2.9,5.5c-2.1,0.8-4.2,1.5-6.3,2.2c0,0-0.1,0-0.1,0c0-0.1,0-0.2,0.1-0.3c0.7-1.5,1.4-2.9,2.1-4.4
			c1-2,1.9-4,2.9-6.1c0.6-1.2,1.1-2.3,1.7-3.5C45.2,26.5,45.2,26.4,45.3,26.3z"/>
		<path class="st5" d="M24.2,46c0.6-0.2,1.2-0.5,1.9-0.7c4.1-1.4,8.1-2.9,12.2-4.3c0,0,0.1,0,0.1,0c-0.8,1.8-1.7,3.6-2.5,5.4
			c-1.1,2.3-3.9,3.3-6.2,2.3C27.8,47.7,26,46.9,24.2,46C24.2,46,24.2,46,24.2,46z"/>
		<path class="st6" d="M3,24.1C3,24.1,3,24.1,3,24.1c0.4,1.1,0.8,2.2,1.2,3.3C5.4,31,6.7,34.6,8,38.1c0,0.1,0,0.1,0,0.2
			c-1.4-0.7-2.8-1.3-4.2-2c-0.4-0.2-0.7-0.3-1.1-0.5c-2.4-1.1-3.4-4-2.3-6.4C1.3,27.7,2.1,25.9,3,24.1z"/>
		<path class="st4" d="M39.4,9.9c-0.4-0.2-0.9-0.4-1.3-0.5c-1.9-0.9-3.7-1.8-5.6-2.7c-1.5-0.7-3.1-1.5-4.6-2.2
			C27.4,4.2,27,4,26.5,3.8c-0.1,0-0.1-0.1-0.2-0.1c1.2-0.4,2.4-0.9,3.6-1.3c0.8-0.3,1.6-0.6,2.4-0.8c2.2-0.5,4.4,0.8,5.2,2.9
			c0.6,1.7,1.2,3.5,1.9,5.2C39.4,9.8,39.4,9.8,39.4,9.9z"/>
		<path class="st4" d="M38.4,40.9C38.4,40.9,38.4,40.9,38.4,40.9C38.4,40.9,38.4,40.9,38.4,40.9z"/>
	</g>
</g>
</svg>
