<?xml version="1.0" encoding="utf-8"?>
<!-- Generator: Adobe Illustrator 21.1.0, SVG Export Plug-In . SVG Version: 6.00 Build 0)  -->
<svg version="1.1" id="Layer_1" xmlns="http://www.w3.org/2000/svg" xmlns:xlink="http://www.w3.org/1999/xlink" x="0px" y="0px"
	 width="94px" height="93.5px" viewBox="0 0 94 93.5" style="enable-background:new 0 0 94 93.5;" xml:space="preserve">
<style type="text/css">
	.st0{fill:#1C1E35;}
	.st1{fill:#143A6B;}
	.st2{fill:#34DDEC;}
	.st3{fill:#5FFDC5;}
	.st4{fill:#153A6B;}
	.st5{fill:#F36262;}
	.st6{fill:#FEAF01;}
	.st7{fill:#FFFFFF;}
</style>
<g>
	<g>
		<path class="st0" d="M15.7,73.8c0-0.1-0.1-0.1-0.1-0.2c0-0.1-0.1-0.2-0.1-0.3c-2.4-6.8-4.8-13.6-7.2-20.4
			c-0.7-2.1-1.5-4.2-2.2-6.3c0.1-0.2,0.1-0.4,0.2-0.5c1-2.1,2-4.2,3-6.3c1.8-3.8,3.6-7.5,5.4-11.3c1.5-3.2,3.1-6.5,4.6-9.7
			c0,0,0.1-0.1,0.1-0.1c0.2-0.1,0.4-0.1,0.5-0.2c8.2-2.9,16.4-5.9,24.7-8.8c1.9-0.7,3.8-1.4,5.7-2.1c0.1,0,0.2,0,0.3,0
			c0.1,0.1,0.2,0.2,0.3,0.2c0.9,0.4,1.8,0.8,2.7,1.3c2.9,1.4,5.9,2.8,8.8,4.2c3.6,1.7,7.1,3.4,10.7,5.1c0.8,0.4,1.6,0.7,2.4,1
			c0,0.1,0.1,0.1,0.1,0.2c0.1,0.2,0.1,0.4,0.2,0.6c2.9,8,5.7,16,8.6,24c0.7,2.1,1.5,4.2,2.2,6.3c-0.1,0.2-0.2,0.5-0.3,0.7
			c-1,2.2-2.1,4.4-3.1,6.6c-1.8,3.8-3.7,7.7-5.5,11.5c-1.3,2.8-2.7,5.6-4,8.4c-0.1,0.2-0.1,0.4-0.1,0.5c0,0,0,0,0,0
			c0,0-0.1,0-0.1,0.1c0,0,0,0,0,0c-0.1,0-0.1,0-0.2,0c-7.7,2.8-15.5,5.5-23.2,8.3c-1.2,0.4-2.4,0.9-3.5,1.3c-0.1,0-0.1,0-0.2,0
			c-0.2-0.1-0.4-0.2-0.6-0.3c-2.8-1.3-5.6-2.6-8.4-4c-3.9-1.8-7.7-3.7-11.6-5.5c-2.8-1.3-5.6-2.7-8.4-4C16.7,74.1,16.2,74,15.7,73.8
			z"/>
		<path class="st1" d="M15.7,73.8c0.5,0.2,1,0.4,1.5,0.6c2.8,1.3,5.6,2.7,8.4,4c3.9,1.8,7.7,3.7,11.6,5.5c2.8,1.3,5.6,2.6,8.4,4
			c0.2,0.1,0.4,0.2,0.6,0.3C44,89,42,89.7,39.9,90.5c-2.6,0.9-5.3,1.9-7.9,2.8c-4.6,1.6-9.6-0.7-11.3-5.3c-1.7-4.6-3.3-9.3-5-14
			C15.7,74,15.7,73.9,15.7,73.8z"/>
		<path class="st2" d="M50.2,7.6c-1.9,0.7-3.8,1.4-5.7,2.1c-8.2,2.9-16.4,5.9-24.7,8.8c-0.2,0.1-0.4,0.1-0.5,0.2
			c0.9-2,1.8-4,2.8-5.9c1.1-2.3,2.2-4.5,3.2-6.8c2.1-4.5,7.4-6.5,12-4.5c4.3,1.9,8.5,4,12.7,6C50.1,7.5,50.1,7.6,50.2,7.6z"/>
		<path class="st3" d="M86.5,50.6c-0.7-2.1-1.5-4.2-2.2-6.3c-2.8-8-5.7-16-8.6-24c-0.1-0.2-0.1-0.4-0.2-0.6c0.8,0.3,1.5,0.7,2.3,1
			c3.5,1.7,7.1,3.3,10.6,5c4.5,2.2,6.4,7.6,4.3,12.1C90.6,42.1,88.6,46.4,86.5,50.6C86.5,50.6,86.5,50.6,86.5,50.6z"/>
		<path class="st4" d="M19.2,18.7c-1.5,3.2-3.1,6.5-4.6,9.7C12.8,32.2,11,36,9.2,39.7c-1,2.1-2,4.2-3,6.3c-0.1,0.2-0.1,0.4-0.2,0.5
			c0,0,0,0-0.1,0c-1.2-3.5-2.5-7-3.7-10.5c-0.5-1.4-1-2.7-1.1-4.2c-0.2-3.8,2.1-7.4,5.7-8.7c4.1-1.5,8.2-2.9,12.2-4.4
			C19.1,18.7,19.1,18.7,19.2,18.7z"/>
		<path class="st4" d="M86.5,50.6C86.5,50.6,86.5,50.6,86.5,50.6c0.8,2.1,1.6,4.3,2.3,6.4c0.8,2.2,1.7,4.4,2.3,6.7
			c1.2,4.4-1.2,8.9-5.5,10.4c-4,1.5-7.9,2.8-11.9,4.3c-0.1,0-0.2,0-0.3,0.1c0-0.2,0-0.4,0.1-0.5c1.3-2.8,2.7-5.6,4-8.4
			c1.8-3.8,3.7-7.7,5.5-11.5c1.1-2.2,2.1-4.4,3.1-6.6C86.3,51.1,86.4,50.9,86.5,50.6z"/>
		<path class="st5" d="M46.3,88.2c1.2-0.4,2.4-0.9,3.5-1.3c7.7-2.8,15.5-5.5,23.2-8.3c0.1,0,0.1,0,0.2,0c-1.6,3.4-3.2,6.8-4.9,10.2
			c-2.1,4.4-7.4,6.3-11.8,4.3c-3.4-1.6-6.8-3.2-10.1-4.8C46.4,88.3,46.3,88.2,46.3,88.2z"/>
		<path class="st6" d="M6,46.6C6,46.6,6,46.6,6,46.6c0.8,2.1,1.5,4.2,2.3,6.3c2.4,6.8,4.8,13.6,7.2,20.4c0,0.1,0.1,0.2,0.1,0.3
			c-2.6-1.2-5.3-2.5-7.9-3.7c-0.7-0.3-1.4-0.7-2.1-1C0.9,66.7-1,61.3,1.2,56.7C2.8,53.3,4.4,50,6,46.6z"/>
		<path class="st4" d="M75.4,19.4c-0.8-0.3-1.6-0.7-2.4-1c-3.6-1.7-7.1-3.4-10.7-5.1c-2.9-1.4-5.9-2.8-8.8-4.2
			c-0.9-0.4-1.8-0.8-2.7-1.3c-0.1-0.1-0.2-0.2-0.3-0.2c2.3-0.8,4.6-1.7,6.8-2.5c1.5-0.5,3-1.1,4.5-1.5c4.3-0.9,8.4,1.5,10,5.6
			c1.2,3.3,2.4,6.6,3.5,9.9C75.4,19.2,75.4,19.3,75.4,19.4z"/>
		<path class="st4" d="M73.3,78.5c0,0,0.1,0,0.1-0.1C73.4,78.5,73.4,78.5,73.3,78.5z"/>
	</g>
</g>
<g>
	<g>
		<g>
			<path class="st7" d="M52.8,49.6l-3.9-1.8c-0.3-0.1-0.5-0.4-0.5-0.7v-1.1c1.3-1.1,2.2-2.7,2.2-4.5v-1.5c0.5-0.3,0.7-0.7,0.7-1.2
				v-0.2c0-3.2-2.6-5.7-5.7-5.7h-1.4c-3.2,0-5.7,2.6-5.7,5.7V40c0,0.5,0.2,0.9,0.6,1.1c0.1,0.1,0.1,0.1,0.2,0.1v0.3
				c0,1.8,0.9,3.5,2.2,4.5v1.1c0,0.3-0.2,0.6-0.5,0.7L37,49.5c-1.3,0.6-2.1,1.8-2.1,3.3v8.9c0,0.4,0.3,0.7,0.7,0.7s0.7-0.3,0.7-0.7
				v-8.8c0-0.1,0-0.2,0-0.3l1.8,1.8c0.3,0.3,0.5,0.7,0.5,1.1v6.4c0,0.4,0.3,0.7,0.7,0.7c0.4,0,0.7-0.3,0.7-0.7v-6.4
				c0-0.8-0.3-1.5-0.8-2l-2.1-2.1c0.2-0.2,0.4-0.4,0.7-0.5l3.9-1.7l2.8,2.8v9.9c0,0.4,0.3,0.7,0.7,0.7c0.4,0,0.7-0.3,0.7-0.7V52
				l2.8-2.8l3.9,1.7c0.3,0.1,0.5,0.3,0.7,0.5l-2.1,2.1c-0.6,0.6-0.8,1.3-0.8,2v6.4c0,0.4,0.3,0.7,0.7,0.7s0.7-0.3,0.7-0.7v-6.4
				c0-0.4,0.2-0.8,0.5-1.1l1.8-1.8c0,0.1,0,0.2,0,0.3v8.9c0,0.4,0.3,0.7,0.7,0.7c0.4,0,0.7-0.3,0.7-0.7v-8.9
				C55,51.4,54.1,50.2,52.8,49.6z M44.9,50.7l-2.5-2.5c0.2-0.3,0.3-0.7,0.3-1.1v-0.3c0.7,0.3,1.4,0.5,2.2,0.5s1.5-0.2,2.2-0.5v0.3
				c0,0.4,0.1,0.8,0.3,1.1L44.9,50.7z M44.9,46c-2.4,0-4.4-2-4.4-4.4v-0.3c0.4-0.2,0.8-0.5,1.2-0.8c0.3-0.3,0.3-0.7,0.1-1
				c-0.3-0.3-0.7-0.3-1-0.1c-0.4,0.3-0.7,0.5-1,0.6l0,0V40v-1.3c0-2.4,2-4.4,4.4-4.4h1.4c2.4,0,4.4,2,4.4,4.4v0.2c0,0,0,0.1-0.1,0.1
				c-4.1,0.8-6.1-0.7-6.8-1.4c-0.3-0.3-0.7-0.3-1,0s-0.3,0.7,0,1c2.1,2.1,5.2,2.1,7,1.9v1.2C49.3,44,47.3,46,44.9,46z"/>
		</g>
	</g>
	<g>
		<g>
			<path class="st7" d="M34,45.9v-1.4c0-1.8-0.9-3.3-2.3-4.2c0.1-0.3,0.2-0.6,0.2-0.9c0-1.6-1.3-2.8-2.8-2.8c-1.6,0-2.8,1.3-2.8,2.8
				c0,0.3,0.1,0.6,0.2,0.9C25,41.2,24,42.7,24,44.5v1.4c0,1.7,0.9,3.2,2.2,4.1v1.5c0,0.3-0.2,0.6-0.4,0.7l-2.3,1.2
				c-1,0.5-1.6,1.5-1.6,2.5v5.9c0,0.4,0.3,0.7,0.7,0.7c0.4,0,0.7-0.3,0.7-0.7v-5.6l1.1,1.1c0.3,0.3,0.5,0.7,0.5,1.1v3.5
				c0,0.4,0.3,0.7,0.7,0.7c0.4,0,0.7-0.3,0.7-0.7v-3.5c0-0.8-0.3-1.5-0.8-2l-1.5-1.5l0,0c0.1-0.1,0.2-0.2,0.3-0.2l2.3-1.2
				c0.1-0.1,0.3-0.2,0.4-0.2l1.7,1.7v7c0,0.4,0.3,0.7,0.7,0.7c0.4,0,0.7-0.3,0.7-0.7v-7l1.7-1.7c0.1,0.1,0.2,0.2,0.4,0.2l0.7,0.3
				c0.1,0.1,0.2,0.1,0.3,0.1c0.3,0,0.5-0.2,0.6-0.4c0.2-0.4,0.1-0.8-0.3-0.9l-0.7-0.3C32.2,52,32,51.8,32,51.5V50
				C33.1,49.2,34,47.6,34,45.9z M29,37.9c0.8,0,1.5,0.7,1.5,1.5c0,0.1,0,0.2,0,0.3c-0.5-0.2-1-0.2-1.5-0.2s-1,0.1-1.5,0.2
				c0-0.1-0.1-0.2-0.1-0.3C27.5,38.6,28.2,37.9,29,37.9z M29,40.8c2,0,3.7,1.6,3.7,3.7v0.3c-2.8,0.9-4.5-1.3-4.6-1.4
				c-0.1-0.2-0.3-0.3-0.5-0.3c-0.2,0-0.4,0.1-0.5,0.2c-0.7,0.7-1.3,1-1.7,1.1C25.4,42.4,27,40.8,29,40.8z M29,53.6L27.4,52
				c0.1-0.2,0.1-0.4,0.1-0.5v-0.8c0.5,0.2,1,0.2,1.5,0.2s1-0.1,1.5-0.2v0.8c0,0.2,0,0.4,0.1,0.6L29,53.6z M29,49.6
				c-2,0-3.7-1.6-3.7-3.7v-0.1c0.6-0.1,1.3-0.4,2.2-1.1c0.3,0.3,0.7,0.6,1.3,0.9c0.7,0.4,1.5,0.7,2.6,0.7c0.4,0,0.9-0.1,1.3-0.2
				C32.5,48,30.9,49.6,29,49.6z"/>
		</g>
	</g>
	<g>
		<g>
			<path class="st7" d="M66.4,51.9l-3.8-1.9c-0.3-0.2-0.4-0.4-0.4-0.7v-1c0.9-0.8,1.4-1.9,1.4-3.2v-0.8h0.1c0.4,0,0.7-0.3,0.7-0.7
				v-1.4c0-2.4-1.9-4.3-4.3-4.3h-1.4c-2.4,0-4.3,1.9-4.3,4.3v1.4c0,0.4,0.3,0.7,0.7,0.7c0,0,0,0,0.1,0v0.8c0,1.3,0.6,2.4,1.4,3.2v1
				c0,0.3-0.2,0.6-0.4,0.7c-0.4,0.2-0.5,0.6-0.3,0.9c0.1,0.3,0.4,0.4,0.6,0.4c0.1,0,0.2,0,0.3-0.1c0.1-0.1,0.3-0.2,0.4-0.2l1.7,1.7
				v9.1c0,0.4,0.3,0.7,0.7,0.7s0.7-0.3,0.7-0.7v-9.1l1.7-1.7c0.1,0.1,0.2,0.2,0.4,0.2l3.7,1.8l-1.2,1.1c-0.6,0.6-0.8,1.3-0.8,2v5.6
				c0,0.4,0.3,0.7,0.7,0.7s0.7-0.3,0.7-0.7v-5.6c0-0.4,0.2-0.8,0.5-1.1l1.1-1.1c0.1,0.1,0.1,0.3,0.1,0.4v7.3c0,0.4,0.3,0.7,0.7,0.7
				s0.7-0.3,0.7-0.7v-7.3C68,53.4,67.4,52.4,66.4,51.9z M55.7,43v-0.6l0,0c0-1.6,1.3-2.9,2.9-2.9h1.4c1.6,0,2.9,1.3,2.9,2.9v0.8
				c-2.9-0.2-4.7-1.3-4.7-1.3c-0.1-0.1-0.3-0.1-0.4-0.1c-0.2,0-0.4,0.1-0.5,0.2C56.8,42.5,56.2,42.8,55.7,43z M59.4,51.5l-1.6-1.6
				c0.1-0.2,0.1-0.4,0.1-0.6v-0.2c0.5,0.2,1,0.3,1.5,0.3s1-0.1,1.5-0.3v0.2c0,0.2,0,0.4,0.1,0.6L59.4,51.5z M59.4,48.1
				c-1.6,0-2.9-1.3-2.9-2.9v-1.1l0,0c0.5-0.2,1-0.5,1.6-1c0.7,0.4,2.2,1,4.3,1.2v0.9C62.3,46.8,61,48.1,59.4,48.1z"/>
		</g>
	</g>
</g>
</svg>
