<?xml version="1.0" encoding="utf-8"?>
<!-- Generator: Adobe Illustrator 21.1.0, SVG Export Plug-In . SVG Version: 6.00 Build 0)  -->
<svg version="1.1" id="Layer_1" xmlns="http://www.w3.org/2000/svg" xmlns:xlink="http://www.w3.org/1999/xlink" x="0px" y="0px"
	 width="94px" height="93.5px" viewBox="0 0 94 93.5" style="enable-background:new 0 0 94 93.5;" xml:space="preserve">
<style type="text/css">
	.st0{fill:#1C1E35;}
	.st1{fill:#143A6B;}
	.st2{fill:#34DDEC;}
	.st3{fill:#5FFDC5;}
	.st4{fill:#153A6B;}
	.st5{fill:#F36262;}
	.st6{fill:#FEAF01;}
	.st7{fill:#FFFFFF;}
</style>
<g>
	<g>
		<path class="st0" d="M15.9,72.8c0-0.1-0.1-0.1-0.1-0.2c0-0.1-0.1-0.2-0.1-0.3c-2.4-6.8-4.8-13.5-7.2-20.3
			c-0.7-2.1-1.5-4.2-2.2-6.3c0.1-0.2,0.1-0.4,0.2-0.5c1-2.1,2-4.2,3-6.3c1.8-3.7,3.6-7.5,5.3-11.2c1.5-3.2,3.1-6.4,4.6-9.7
			c0,0,0.1-0.1,0.1-0.1c0.2-0.1,0.4-0.1,0.5-0.2c8.2-2.9,16.4-5.8,24.5-8.7c1.9-0.7,3.8-1.4,5.7-2.1c0.1,0,0.2,0,0.3,0
			c0.1,0.1,0.2,0.2,0.3,0.2c0.9,0.4,1.8,0.8,2.6,1.2c2.9,1.4,5.9,2.8,8.8,4.2c3.5,1.7,7.1,3.4,10.6,5.1c0.8,0.4,1.6,0.7,2.4,1
			c0,0.1,0.1,0.1,0.1,0.2c0.1,0.2,0.1,0.4,0.2,0.6c2.8,8,5.7,15.9,8.5,23.9c0.7,2.1,1.5,4.2,2.2,6.3c-0.1,0.2-0.2,0.5-0.3,0.7
			c-1,2.2-2.1,4.4-3.1,6.6c-1.8,3.8-3.6,7.7-5.5,11.5c-1.3,2.8-2.7,5.6-4,8.3c-0.1,0.2-0.1,0.4-0.1,0.5c0,0,0,0,0,0
			c0,0-0.1,0-0.1,0.1c0,0,0,0,0,0c-0.1,0-0.1,0-0.2,0c-7.7,2.7-15.4,5.5-23.1,8.2c-1.2,0.4-2.4,0.9-3.5,1.3c-0.1,0-0.1,0-0.2,0
			c-0.2-0.1-0.4-0.2-0.6-0.3c-2.8-1.3-5.6-2.6-8.4-4c-3.9-1.8-7.7-3.7-11.6-5.5c-2.8-1.3-5.6-2.7-8.3-4C16.9,73.1,16.4,73,15.9,72.8
			z"/>
		<path class="st1" d="M15.9,72.8c0.5,0.2,1,0.4,1.5,0.6c2.8,1.3,5.6,2.7,8.3,4c3.8,1.8,7.7,3.7,11.6,5.5c2.8,1.3,5.6,2.6,8.4,4
			c0.2,0.1,0.4,0.2,0.6,0.3c-2.1,0.7-4.1,1.5-6.2,2.2c-2.6,0.9-5.2,1.9-7.8,2.8c-4.6,1.6-9.6-0.7-11.2-5.2
			c-1.7-4.6-3.3-9.3-4.9-13.9C16,73,15.9,72.9,15.9,72.8z"/>
		<path class="st2" d="M50.3,6.9c-1.9,0.7-3.8,1.4-5.7,2.1c-8.2,2.9-16.4,5.8-24.5,8.7c-0.2,0.1-0.4,0.1-0.5,0.2
			c0.9-2,1.8-3.9,2.8-5.9c1.1-2.3,2.1-4.5,3.2-6.8c2.1-4.5,7.4-6.5,11.9-4.4c4.3,1.9,8.5,4,12.7,6C50.1,6.8,50.2,6.9,50.3,6.9z"/>
		<path class="st3" d="M86.4,49.7c-0.7-2.1-1.5-4.2-2.2-6.3c-2.8-8-5.7-16-8.5-23.9c-0.1-0.2-0.1-0.4-0.2-0.6c0.8,0.3,1.5,0.7,2.3,1
			c3.5,1.7,7,3.3,10.5,5c4.5,2.2,6.4,7.6,4.2,12.1C90.5,41.2,88.5,45.5,86.4,49.7C86.5,49.7,86.4,49.7,86.4,49.7z"/>
		<path class="st4" d="M19.4,18c-1.5,3.2-3.1,6.4-4.6,9.7c-1.8,3.7-3.6,7.5-5.3,11.2c-1,2.1-2,4.2-3,6.3c-0.1,0.2-0.1,0.4-0.2,0.5
			c0,0,0,0-0.1,0c-1.2-3.5-2.5-7-3.7-10.5c-0.5-1.4-1-2.7-1.1-4.2c-0.2-3.8,2.1-7.3,5.6-8.6c4-1.5,8.1-2.9,12.2-4.4
			C19.3,18,19.4,18,19.4,18z"/>
		<path class="st4" d="M86.4,49.7C86.4,49.7,86.5,49.7,86.4,49.7c0.8,2.1,1.6,4.2,2.3,6.4c0.8,2.2,1.7,4.4,2.3,6.6
			c1.2,4.4-1.2,8.8-5.4,10.4c-3.9,1.4-7.9,2.8-11.9,4.2c-0.1,0-0.2,0-0.3,0.1c0-0.2,0-0.4,0.1-0.5c1.3-2.8,2.7-5.6,4-8.3
			c1.8-3.8,3.6-7.7,5.5-11.5c1-2.2,2.1-4.4,3.1-6.6C86.2,50.2,86.3,50,86.4,49.7z"/>
		<path class="st5" d="M46.4,87.1c1.2-0.4,2.3-0.9,3.5-1.3c7.7-2.7,15.4-5.5,23.1-8.2c0.1,0,0.1,0,0.2,0c-1.6,3.4-3.2,6.8-4.8,10.2
			C66.3,92.1,61,94,56.6,92c-3.4-1.5-6.7-3.2-10.1-4.8C46.5,87.2,46.4,87.2,46.4,87.1z"/>
		<path class="st6" d="M6.2,45.7C6.3,45.7,6.3,45.7,6.2,45.7C7,47.8,7.7,49.9,8.5,52c2.4,6.8,4.8,13.5,7.2,20.3
			c0,0.1,0.1,0.2,0.1,0.3c-2.6-1.2-5.3-2.5-7.9-3.7c-0.7-0.3-1.4-0.7-2.1-1c-4.6-2.2-6.5-7.5-4.3-12.1C3.1,52.4,4.7,49.1,6.2,45.7z"
			/>
		<path class="st4" d="M75.3,18.7c-0.8-0.3-1.6-0.7-2.4-1c-3.5-1.7-7.1-3.4-10.6-5.1c-2.9-1.4-5.9-2.8-8.8-4.2
			c-0.9-0.4-1.8-0.8-2.6-1.2c-0.1-0.1-0.2-0.2-0.3-0.2c2.3-0.8,4.5-1.7,6.8-2.5c1.5-0.5,3-1.1,4.5-1.5c4.2-0.9,8.4,1.5,9.9,5.6
			c1.2,3.3,2.3,6.6,3.5,9.9C75.3,18.5,75.3,18.6,75.3,18.7z"/>
		<path class="st4" d="M73.3,77.5c0,0,0.1,0,0.1-0.1C73.4,77.5,73.3,77.5,73.3,77.5z"/>
	</g>
</g>
<g>
	<g>
		<g>
			<circle class="st7" cx="30.8" cy="65" r="0.7"/>
		</g>
	</g>
	<g>
		<g>
			<circle class="st7" cx="48.2" cy="47.7" r="0.7"/>
		</g>
	</g>
	<g>
		<g>
			<path class="st7" d="M57.2,39c-0.6-0.6-1.3-0.8-2.1-0.8s-1.5,0.3-2.1,0.8c-1.1,1.1-1.1,3,0,4.1c0.6,0.6,1.3,0.8,2.1,0.8
				c0.7,0,1.5-0.3,2.1-0.8C58.3,42,58.3,40.1,57.2,39z M56.2,42.2c-0.6,0.6-1.6,0.6-2.2,0c-0.6-0.6-0.6-1.6,0-2.2
				c0.3-0.3,0.7-0.4,1.1-0.4s0.8,0.2,1.1,0.4C56.8,40.6,56.8,41.6,56.2,42.2z"/>
		</g>
	</g>
	<g>
		<g>
			<path class="st7" d="M38.6,58.9c-0.3-0.2-0.7,0-0.9,0.3l-0.8,1.6c-0.3,0.7-1,1.2-1.8,1.2l-1,0c-0.2,0-0.3-0.1-0.3-0.1
				c0,0-0.1-0.2-0.1-0.3l0-1c0-0.8,0.5-1.5,1.2-1.8l1.7-0.7c0.3-0.2,0.5-0.6,0.3-0.9c-0.2-0.3-0.6-0.5-0.9-0.3l-1.6,0.8
				c-1.1,0.6-1.9,1.7-2,3l0,1c0,0.5,0.1,1,0.5,1.4c0.3,0.3,0.8,0.5,1.3,0.5c0,0,0.1,0,0.1,0l1,0c1.3-0.1,2.4-0.8,3-2l0.8-1.6
				C39.1,59.5,39,59.1,38.6,58.9z"/>
		</g>
	</g>
	<g>
		<g>
			<path class="st7" d="M64.4,31.6c-0.3-0.3-0.7-0.5-1.2-0.4l-0.7,0c-5.7,0.3-11,3.1-14.6,7.5l-1.5,1.8l-3.9-0.1l0,0
				c-3.1,0-6,1.2-8.2,3.4l-4,4c-0.2,0.2-0.3,0.5-0.2,0.7c0.1,0.3,0.3,0.4,0.6,0.4l8.5,0.4l-0.3,0.4c-0.2,0.2-0.2,0.5-0.1,0.7
				c0.1,0.3,0.3,0.5,0.4,0.7l-2,2.4c-0.2,0.2-0.2,0.5-0.1,0.7c0.4,0.9,1,1.7,1.7,2.5c0.7,0.7,1.6,1.4,2.5,1.8c0.1,0,0.2,0,0.3,0
				c0.2,0,0.3,0,0.4-0.1c0.4-0.3,0.9-0.8,1.4-1.2c0.3-0.3,0.7-0.6,1-0.8c0.2,0.1,0.4,0.2,0.6,0.3c0.1,0,0.2,0.1,0.3,0.1
				c0.1,0,0.3,0,0.4-0.1l0.5-0.3l0.4,8.5c0,0.3,0.2,0.5,0.4,0.6c0.1,0,0.2,0,0.3,0c0.2,0,0.3-0.1,0.5-0.2l4-4
				c2.2-2.2,3.4-5.1,3.4-8.2v-3.7l1.6-1.2c4.7-3.7,7.6-9.3,7.9-15.3v-0.3C64.9,32.3,64.8,31.9,64.4,31.6z M32.4,47.7l2.9-2.9
				c1.9-1.9,4.5-3,7.3-3l2.8,0.1l-5.1,6.3L32.4,47.7z M42.7,56.4c-0.3,0.3-0.7,0.6-1,0.9c-0.7-0.3-1.3-0.8-1.7-1.3
				c-0.5-0.5-0.9-1.1-1.3-1.7l1.5-1.7c0.4,0.6,0.9,1.2,1.4,1.7l0,0l0,0l0,0c0.6,0.6,1.2,1.1,1.9,1.6C43.2,56,42.9,56.2,42.7,56.4z
				 M54,53.3c0,2.8-1,5.3-3,7.3l-2.9,2.9l-0.4-7.9l6.3-4.9V53.3L54,53.3z M63.5,33c-0.3,5.6-2.9,10.8-7.3,14.2l-10.7,8.3
				c-0.9-0.5-1.7-1.1-2.5-1.8l3.6-3.6c0.3-0.3,0.3-0.7,0-1c-0.3-0.3-0.7-0.3-1,0L42,52.7c-0.7-0.7-1.3-1.5-1.7-2.4L49,39.5
				c3.4-4.1,8.3-6.7,13.6-7l0.7,0c0.1,0,0.1,0,0.2,0c0,0,0.1,0.1,0,0.2L63.5,33z"/>
		</g>
	</g>
</g>
</svg>
