<?xml version="1.0" encoding="utf-8"?>
<!-- Generator: Adobe Illustrator 21.1.0, SVG Export Plug-In . SVG Version: 6.00 Build 0)  -->
<svg version="1.1" id="Layer_1" xmlns="http://www.w3.org/2000/svg" xmlns:xlink="http://www.w3.org/1999/xlink" x="0px" y="0px"
	 width="94px" height="93.5px" viewBox="0 0 94 93.5" style="enable-background:new 0 0 94 93.5;" xml:space="preserve">
<style type="text/css">
	.st0{fill:#1C1E35;}
	.st1{fill:#143A6B;}
	.st2{fill:#34DDEC;}
	.st3{fill:#5FFDC5;}
	.st4{fill:#153A6B;}
	.st5{fill:#F36262;}
	.st6{fill:#FEAF01;}
	.st7{fill:#FFFFFF;}
</style>
<g>
	<g>
		<path class="st0" d="M16.3,73.3c0-0.1-0.1-0.1-0.1-0.2c0-0.1-0.1-0.2-0.1-0.3c-2.4-6.8-4.8-13.5-7.2-20.3
			c-0.7-2.1-1.5-4.2-2.2-6.3c0.1-0.2,0.1-0.4,0.2-0.5c1-2.1,2-4.2,3-6.3c1.8-3.7,3.6-7.5,5.3-11.2c1.5-3.2,3.1-6.4,4.6-9.7
			c0,0,0.1-0.1,0.1-0.1c0.2-0.1,0.4-0.1,0.5-0.2c8.2-2.9,16.4-5.8,24.5-8.7c1.9-0.7,3.8-1.4,5.7-2.1c0.1,0,0.2,0,0.3,0
			c0.1,0.1,0.2,0.2,0.3,0.2c0.9,0.4,1.8,0.8,2.6,1.2c2.9,1.4,5.9,2.8,8.8,4.2c3.5,1.7,7.1,3.4,10.6,5.1c0.8,0.4,1.6,0.7,2.4,1
			c0,0.1,0.1,0.1,0.1,0.2c0.1,0.2,0.1,0.4,0.2,0.6c2.8,8,5.7,15.9,8.5,23.9c0.7,2.1,1.5,4.2,2.2,6.3c-0.1,0.2-0.2,0.5-0.3,0.7
			c-1,2.2-2.1,4.4-3.1,6.6c-1.8,3.8-3.6,7.7-5.5,11.5c-1.3,2.8-2.7,5.6-4,8.3c-0.1,0.2-0.1,0.4-0.1,0.5c0,0,0,0,0,0
			c0,0-0.1,0-0.1,0.1c0,0,0,0,0,0c-0.1,0-0.1,0-0.2,0c-7.7,2.7-15.4,5.5-23.1,8.2c-1.2,0.4-2.4,0.9-3.5,1.3c-0.1,0-0.1,0-0.2,0
			c-0.2-0.1-0.4-0.2-0.6-0.3c-2.8-1.3-5.6-2.6-8.4-4c-3.9-1.8-7.7-3.7-11.6-5.5c-2.8-1.3-5.6-2.7-8.3-4
			C17.3,73.7,16.8,73.5,16.3,73.3z"/>
		<path class="st1" d="M16.3,73.3c0.5,0.2,1,0.4,1.5,0.6c2.8,1.3,5.6,2.7,8.3,4c3.8,1.8,7.7,3.7,11.6,5.5c2.8,1.3,5.6,2.6,8.4,4
			c0.2,0.1,0.4,0.2,0.6,0.3c-2.1,0.7-4.1,1.5-6.2,2.2c-2.6,0.9-5.2,1.9-7.8,2.8C28,94.4,23,92,21.3,87.5c-1.7-4.6-3.3-9.3-4.9-13.9
			C16.4,73.5,16.4,73.4,16.3,73.3z"/>
		<path class="st2" d="M50.7,7.5c-1.9,0.7-3.8,1.4-5.7,2.1c-8.2,2.9-16.4,5.8-24.5,8.7c-0.2,0.1-0.4,0.1-0.5,0.2
			c0.9-2,1.8-3.9,2.8-5.9c1.1-2.3,2.1-4.5,3.2-6.8c2.1-4.5,7.4-6.5,11.9-4.4c4.3,1.9,8.5,4,12.7,6C50.6,7.4,50.6,7.4,50.7,7.5z"/>
		<path class="st3" d="M86.8,50.3c-0.7-2.1-1.5-4.2-2.2-6.3c-2.8-8-5.7-16-8.5-23.9c-0.1-0.2-0.1-0.4-0.2-0.6c0.8,0.3,1.5,0.7,2.3,1
			c3.5,1.7,7,3.3,10.5,5c4.5,2.2,6.4,7.6,4.2,12.1C90.9,41.8,88.9,46.1,86.8,50.3C86.9,50.3,86.8,50.3,86.8,50.3z"/>
		<path class="st4" d="M19.8,18.5c-1.5,3.2-3.1,6.4-4.6,9.7c-1.8,3.7-3.6,7.5-5.3,11.2c-1,2.1-2,4.2-3,6.3c-0.1,0.2-0.1,0.4-0.2,0.5
			c0,0,0,0-0.1,0c-1.2-3.5-2.5-7-3.7-10.5c-0.5-1.4-1-2.7-1.1-4.2c-0.2-3.8,2.1-7.3,5.6-8.6c4-1.5,8.1-2.9,12.2-4.4
			C19.7,18.5,19.8,18.5,19.8,18.5z"/>
		<path class="st4" d="M86.8,50.3C86.8,50.3,86.9,50.3,86.8,50.3c0.8,2.1,1.6,4.2,2.3,6.4c0.8,2.2,1.7,4.4,2.3,6.6
			c1.2,4.4-1.2,8.8-5.4,10.4c-3.9,1.4-7.9,2.8-11.9,4.2c-0.1,0-0.2,0-0.3,0.1c0-0.2,0-0.4,0.1-0.5c1.3-2.8,2.7-5.6,4-8.3
			c1.8-3.8,3.6-7.7,5.5-11.5c1-2.2,2.1-4.4,3.1-6.6C86.7,50.8,86.7,50.5,86.8,50.3z"/>
		<path class="st5" d="M46.8,87.7c1.2-0.4,2.3-0.9,3.5-1.3c7.7-2.7,15.4-5.5,23.1-8.2c0.1,0,0.1,0,0.2,0c-1.6,3.4-3.2,6.8-4.8,10.2
			c-2.1,4.4-7.4,6.3-11.8,4.3c-3.4-1.5-6.7-3.2-10.1-4.8C46.9,87.8,46.9,87.7,46.8,87.7z"/>
		<path class="st6" d="M6.7,46.3C6.7,46.3,6.7,46.3,6.7,46.3c0.8,2.1,1.5,4.2,2.2,6.3c2.4,6.8,4.8,13.5,7.2,20.3
			c0,0.1,0.1,0.2,0.1,0.3c-2.6-1.2-5.3-2.5-7.9-3.7c-0.7-0.3-1.4-0.7-2.1-1c-4.6-2.2-6.5-7.5-4.3-12.1C3.5,53,5.1,49.6,6.7,46.3z"/>
		<path class="st4" d="M75.8,19.2c-0.8-0.3-1.6-0.7-2.4-1c-3.5-1.7-7.1-3.4-10.6-5.1c-2.9-1.4-5.9-2.8-8.8-4.2
			c-0.9-0.4-1.8-0.8-2.6-1.2c-0.1-0.1-0.2-0.2-0.3-0.2c2.3-0.8,4.5-1.7,6.8-2.5c1.5-0.5,3-1.1,4.5-1.5c4.2-0.9,8.4,1.5,9.9,5.6
			c1.2,3.3,2.3,6.6,3.5,9.9C75.7,19,75.7,19.1,75.8,19.2z"/>
		<path class="st4" d="M73.7,78.1c0,0,0.1,0,0.1-0.1C73.8,78,73.8,78,73.7,78.1z"/>
	</g>
</g>
<g>
	<g>
		<g>
			<circle class="st7" cx="24.8" cy="63.1" r="0.8"/>
		</g>
	</g>
	<g>
		<g>
			<circle class="st7" cx="45.2" cy="42.8" r="0.8"/>
		</g>
	</g>
	<g>
		<g>
			<path class="st7" d="M55.7,32.7c-0.6-0.6-1.5-1-2.4-1c-0.9,0-1.8,0.3-2.4,1c-1.3,1.3-1.3,3.5,0,4.8c0.6,0.6,1.5,1,2.4,1
				s1.7-0.3,2.4-1C57,36.1,57,34,55.7,32.7z M54.6,36.4c-0.7,0.7-1.9,0.7-2.6,0s-0.7-1.9,0-2.6c0.3-0.3,0.8-0.5,1.3-0.5
				c0.5,0,1,0.2,1.3,0.5C55.3,34.5,55.3,35.7,54.6,36.4z"/>
		</g>
	</g>
	<g>
		<g>
			<path class="st7" d="M34,56c-0.4-0.2-0.9,0-1.1,0.3l-1,1.9c-0.4,0.8-1.3,1.4-2.2,1.4l-1.1,0.1c-0.2,0-0.3-0.1-0.3-0.1
				c0,0-0.1-0.2-0.1-0.3l0.1-1.1c0-0.9,0.6-1.8,1.4-2.2l1.9-1c0.4-0.2,0.6-0.7,0.3-1.1c-0.2-0.4-0.7-0.6-1.1-0.3l-1.9,1
				c-1.3,0.6-2.2,2-2.3,3.5l0,1.1c0,0.6,0.2,1.2,0.6,1.6c0.4,0.4,0.9,0.6,1.5,0.6c0,0,0.1,0,0.1,0l1.1-0.1c1.5-0.1,2.8-1,3.5-2.3
				l1-1.9C34.6,56.7,34.4,56.2,34,56z"/>
		</g>
	</g>
	<g>
		<g>
			<path class="st7" d="M64.2,23.9c-0.4-0.4-0.9-0.6-1.4-0.5l-0.7,0c-6.6,0.4-12.9,3.6-17.1,8.8l-1.7,2.2l-4.6-0.1c0,0,0,0,0,0
				c-3.6,0-7.1,1.4-9.6,4L24.3,43c-0.2,0.2-0.3,0.6-0.2,0.9c0.1,0.3,0.4,0.5,0.7,0.5l9.9,0.5l-0.4,0.5c-0.2,0.3-0.2,0.6-0.1,0.9
				c0.2,0.3,0.3,0.6,0.5,0.8l-2.3,2.8c-0.2,0.3-0.3,0.6-0.1,0.9c0.5,1.1,1.2,2.1,2,2.9c0.9,0.9,1.9,1.6,2.9,2.1
				c0.1,0,0.2,0.1,0.3,0.1c0.2,0,0.3,0,0.5-0.2c0.5-0.4,1.1-0.9,1.6-1.4c0.4-0.3,0.8-0.7,1.2-1c0.2,0.1,0.5,0.3,0.7,0.4
				c0.1,0.1,0.3,0.1,0.4,0.1c0.2,0,0.3,0,0.5-0.2l0.6-0.4l0.5,10c0,0.3,0.2,0.6,0.5,0.7c0.1,0,0.2,0,0.3,0c0.2,0,0.4-0.1,0.6-0.2
				l4.7-4.7c2.6-2.6,4-6,4-9.6V45l1.9-1.4c5.5-4.3,8.9-10.8,9.3-17.8v-0.4C64.8,24.8,64.5,24.3,64.2,23.9z M26.7,42.8l3.4-3.4
				c2.3-2.3,5.3-3.5,8.5-3.5l3.3,0.1L36,43.3L26.7,42.8z M38.7,53c-0.4,0.3-0.8,0.7-1.3,1c-0.8-0.4-1.5-1-2.1-1.6
				c-0.6-0.6-1.1-1.3-1.5-2l1.7-2c0.5,0.7,1.1,1.3,1.7,2l0,0l0,0l0,0c0.7,0.7,1.4,1.3,2.2,1.9C39.3,52.5,39,52.8,38.7,53z M52,49.3
				c0,3.2-1.3,6.2-3.5,8.5l-3.4,3.4L44.6,52l7.4-5.8V49.3L52,49.3z M63.1,25.7c-0.3,6.5-3.5,12.6-8.7,16.6L42,52
				c-1-0.6-2-1.3-2.9-2.1l4.2-4.2c0.3-0.3,0.3-0.8,0-1.1c-0.3-0.3-0.8-0.3-1.1,0l-4.2,4.2c-0.8-0.9-1.5-1.8-2-2.8l10.3-12.6
				c3.9-4.9,9.7-7.9,16-8.3l0.7,0c0.1,0,0.2,0,0.2,0.1c0,0,0.1,0.1,0.1,0.2L63.1,25.7z"/>
		</g>
	</g>
</g>
</svg>
