<?xml version="1.0" encoding="utf-8"?>
<!-- Generator: Adobe Illustrator 21.1.0, SVG Export Plug-In . SVG Version: 6.00 Build 0)  -->
<svg version="1.1" id="Layer_1" xmlns="http://www.w3.org/2000/svg" xmlns:xlink="http://www.w3.org/1999/xlink" x="0px" y="0px"
	 width="94px" height="93.5px" viewBox="0 0 94 93.5" style="enable-background:new 0 0 94 93.5;" xml:space="preserve">
<style type="text/css">
	.st0{fill:#1C1E35;}
	.st1{fill:#143A6B;}
	.st2{fill:#34DDEC;}
	.st3{fill:#5FFDC5;}
	.st4{fill:#153A6B;}
	.st5{fill:#F36262;}
	.st6{fill:#FEAF01;}
	.st7{fill:#FFFFFF;}
</style>
<g>
	<g>
		<path class="st0" d="M17,73.4c0-0.1-0.1-0.1-0.1-0.2c0-0.1,0-0.2-0.1-0.3c-2.4-6.6-4.7-13.2-7.1-19.9c-0.7-2-1.4-4.1-2.1-6.1
			c0.1-0.2,0.1-0.4,0.2-0.5c1-2.1,1.9-4.1,2.9-6.2c1.7-3.7,3.5-7.3,5.2-11c1.5-3.2,3-6.3,4.5-9.5c0,0,0.1-0.1,0.1-0.1
			c0.2,0,0.4-0.1,0.5-0.1c8-2.9,16-5.7,24-8.6c1.9-0.7,3.7-1.3,5.6-2c0.1,0,0.2,0,0.3,0c0.1,0.1,0.2,0.2,0.3,0.2
			c0.9,0.4,1.7,0.8,2.6,1.2c2.9,1.4,5.7,2.7,8.6,4.1c3.5,1.7,6.9,3.3,10.4,5c0.8,0.4,1.6,0.7,2.4,1c0,0.1,0.1,0.1,0.1,0.2
			c0.1,0.2,0.1,0.4,0.2,0.6c2.8,7.8,5.6,15.6,8.3,23.4c0.7,2,1.4,4.1,2.2,6.1c-0.1,0.2-0.2,0.5-0.3,0.7c-1,2.2-2,4.3-3.1,6.5
			c-1.8,3.8-3.6,7.5-5.4,11.3c-1.3,2.7-2.6,5.4-3.9,8.2c-0.1,0.2-0.1,0.3-0.1,0.5c0,0,0,0,0,0c0,0-0.1,0-0.1,0.1c0,0,0,0,0,0
			c-0.1,0-0.1,0-0.2,0c-7.6,2.7-15.1,5.4-22.7,8.1c-1.2,0.4-2.3,0.9-3.5,1.3c-0.1,0-0.1,0-0.2,0c-0.2-0.1-0.4-0.2-0.6-0.3
			c-2.7-1.3-5.5-2.6-8.2-3.9c-3.8-1.8-7.5-3.6-11.3-5.4c-2.7-1.3-5.4-2.6-8.2-3.9C18,73.7,17.5,73.5,17,73.4z"/>
		<path class="st1" d="M17,73.4c0.5,0.2,1,0.4,1.4,0.6c2.7,1.3,5.4,2.6,8.2,3.9c3.8,1.8,7.5,3.6,11.3,5.4c2.7,1.3,5.5,2.6,8.2,3.9
			c0.2,0.1,0.4,0.2,0.6,0.3c-2,0.7-4,1.5-6.1,2.2c-2.6,0.9-5.1,1.8-7.7,2.7c-4.5,1.6-9.4-0.7-11-5.1c-1.6-4.5-3.2-9.1-4.8-13.6
			C17.1,73.5,17.1,73.4,17,73.4z"/>
		<path class="st2" d="M50.7,8.8c-1.9,0.7-3.7,1.4-5.6,2c-8,2.9-16,5.7-24,8.6c-0.2,0.1-0.4,0.1-0.5,0.1c0.9-1.9,1.8-3.9,2.7-5.8
			c1-2.2,2.1-4.4,3.2-6.6c2.1-4.4,7.2-6.4,11.7-4.4c4.2,1.9,8.3,3.9,12.4,5.9C50.6,8.7,50.6,8.8,50.7,8.8z"/>
		<path class="st3" d="M86.1,50.8c-0.7-2-1.4-4.1-2.2-6.1c-2.8-7.8-5.6-15.6-8.3-23.4c-0.1-0.2-0.1-0.4-0.2-0.6
			c0.7,0.3,1.5,0.6,2.2,1c3.4,1.6,6.9,3.3,10.3,4.9c4.4,2.1,6.3,7.4,4.1,11.8C90.1,42.5,88.1,46.6,86.1,50.8
			C86.1,50.8,86.1,50.8,86.1,50.8z"/>
		<path class="st4" d="M20.4,19.7c-1.5,3.2-3,6.3-4.5,9.5c-1.7,3.7-3.5,7.3-5.2,11c-1,2.1-2,4.1-2.9,6.2c-0.1,0.2-0.1,0.3-0.2,0.5
			c0,0,0,0-0.1,0C6.3,43.4,5.1,40,3.9,36.6c-0.5-1.3-1-2.7-1.1-4.1c-0.2-3.7,2-7.2,5.5-8.5c4-1.5,8-2.8,11.9-4.3
			C20.3,19.7,20.4,19.7,20.4,19.7z"/>
		<path class="st4" d="M86.1,50.8C86.1,50.8,86.1,50.8,86.1,50.8c0.8,2.1,1.5,4.2,2.3,6.2c0.8,2.2,1.6,4.3,2.2,6.5
			c1.2,4.3-1.2,8.7-5.3,10.2c-3.9,1.4-7.7,2.8-11.6,4.2c-0.1,0-0.2,0-0.3,0.1c0-0.2,0-0.4,0.1-0.5c1.3-2.7,2.6-5.4,3.9-8.2
			c1.8-3.8,3.6-7.5,5.4-11.3c1-2.2,2.1-4.3,3.1-6.5C85.9,51.3,86,51,86.1,50.8z"/>
		<path class="st5" d="M46.9,87.4c1.2-0.4,2.3-0.9,3.5-1.3c7.6-2.7,15.1-5.4,22.7-8.1c0.1,0,0.1,0,0.2,0c-1.6,3.3-3.1,6.7-4.7,10
			c-2.1,4.3-7.2,6.2-11.5,4.2c-3.3-1.5-6.6-3.1-9.9-4.7C47,87.5,46.9,87.4,46.9,87.4z"/>
		<path class="st6" d="M7.5,46.9C7.6,46.9,7.6,46.9,7.5,46.9C8.3,48.9,9,51,9.8,53c2.4,6.6,4.7,13.2,7.1,19.9c0,0.1,0.1,0.2,0.1,0.3
			c-2.6-1.2-5.2-2.4-7.7-3.6c-0.7-0.3-1.4-0.6-2-1c-4.5-2.1-6.4-7.4-4.2-11.9C4.4,53.4,6,50.1,7.5,46.9z"/>
		<path class="st4" d="M75.3,20.4c-0.8-0.3-1.6-0.7-2.4-1c-3.5-1.6-6.9-3.3-10.4-5c-2.9-1.4-5.7-2.7-8.6-4.1
			c-0.9-0.4-1.7-0.8-2.6-1.2C51.2,9,51.1,8.9,51,8.8c2.2-0.8,4.4-1.6,6.7-2.4c1.5-0.5,2.9-1.1,4.4-1.4c4.2-0.9,8.2,1.5,9.7,5.5
			c1.2,3.2,2.3,6.4,3.4,9.7C75.2,20.2,75.2,20.3,75.3,20.4z"/>
		<path class="st4" d="M73.2,78c0,0,0.1,0,0.1-0.1C73.3,77.9,73.3,78,73.2,78z"/>
	</g>
</g>
<g>
	<path class="st7" d="M63.2,44.9h-1.6v-7.2c0-1.7-1.4-3.2-3.2-3.2h-2.1l-2.2-3.9c-0.3-0.6-1-1-1.7-1c-0.3,0-0.6,0.1-0.9,0.2
		l-8.4,4.7h-9.4c-1.7,0-3.2,1.4-3.2,3.2v21.7c0,1.7,1.4,3.2,3.2,3.2h24.7c1.7,0,3.2-1.4,3.2-3.2v-6.4h1.6L63.2,44.9L63.2,44.9z
		 M58.5,35.7c1,0,1.8,0.7,1.9,1.7H58L57,35.7H58.5z M52.2,30.9c0.3-0.2,0.7,0,0.8,0.2l3.5,6.3h-16L52.2,30.9z M60.4,59.3
		c0,1.1-0.8,1.9-1.9,1.9H33.8c-1.1,0-1.9-0.8-1.9-1.9V37.6c0-1.1,0.8-1.9,1.9-1.9h7.1l-3,1.7h-3.7c-0.4,0-0.6,0.3-0.6,0.6
		c0,0.4,0.3,0.6,0.6,0.6h1.4h23.1h1.7v6.2h-4.6c-2.1,0-3.9,1.8-3.9,3.9v0.3c0,2.1,1.8,3.9,3.9,3.9h4.6V59.3L60.4,59.3z M61.9,51.7
		h-0.3h-5.9c-1.4,0-2.6-1.2-2.6-2.6v-0.3c0-1.4,1.2-2.6,2.6-2.6h5.9h0.3V51.7z M57.7,49c0,0.8-0.6,1.4-1.4,1.4
		c-0.8,0-1.4-0.6-1.4-1.4s0.6-1.4,1.4-1.4C57.1,47.6,57.7,48.2,57.7,49z"/>
</g>
</svg>
