<?xml version="1.0" encoding="utf-8"?>
<!-- Generator: Adobe Illustrator 21.1.0, SVG Export Plug-In . SVG Version: 6.00 Build 0)  -->
<svg version="1.1" id="Layer_1" xmlns="http://www.w3.org/2000/svg" xmlns:xlink="http://www.w3.org/1999/xlink" x="0px" y="0px"
	 width="94px" height="93.5px" viewBox="0 0 94 93.5" style="enable-background:new 0 0 94 93.5;" xml:space="preserve">
<style type="text/css">
	.st0{fill:#E26A66;}
</style>
<g>
	<g>
		<path class="st0" d="M85.1,8.2H8.9c-4.5,0-8.1,3.6-8.1,8.1V66c0,4.5,3.6,8.1,8.1,8.1h76.2c4.5,0,8.1-3.6,8.1-8.1V16.3
			C93.2,11.9,89.6,8.2,85.1,8.2z M87.8,66c0,1.5-1.2,2.7-2.7,2.7H8.9c-1.5,0-2.7-1.2-2.7-2.7V27.1h81.6V66z M87.8,21.6H6.2v-5.3
			c0-1.5,1.2-2.7,2.7-2.7h76.2c1.5,0,2.7,1.2,2.7,2.7V21.6z"/>
	</g>
</g>
<g>
	<g>
		<path class="st0" d="M31.8,34.2c-4.8,0-8.8,3.9-8.8,8.8v11.8c0,1.5,1.2,2.7,2.7,2.7c1.5,0,2.7-1.2,2.7-2.7v-5.1h6.7v5.1
			c0,1.5,1.2,2.7,2.7,2.7c1.5,0,2.7-1.2,2.7-2.7V42.9C40.5,38.1,36.6,34.2,31.8,34.2z M35.1,44.2h-6.7v-1.3h0c0-1.8,1.5-3.3,3.3-3.3
			c1.8,0,3.3,1.5,3.3,3.3L35.1,44.2L35.1,44.2z"/>
	</g>
</g>
<g>
	<g>
		<path class="st0" d="M54.1,34.2H47c-1.5,0-2.7,1.2-2.7,2.7v17.9c0,1.5,1.2,2.7,2.7,2.7s2.7-1.2,2.7-2.7v-5.1h4.4
			c4.3,0,7.7-3.5,7.7-7.7C61.8,37.6,58.3,34.2,54.1,34.2z M54.1,44.2h-4.4v-4.6h4.4c1.3,0,2.3,1,2.3,2.3
			C56.4,43.1,55.4,44.2,54.1,44.2z"/>
	</g>
</g>
<g>
	<g>
		<path class="st0" d="M68.3,34.2c-1.5,0-2.7,1.2-2.7,2.7v17.9c0,1.5,1.2,2.7,2.7,2.7s2.7-1.2,2.7-2.7V36.9
			C71,35.4,69.7,34.2,68.3,34.2z"/>
	</g>
</g>
</svg>
