<?xml version="1.0" encoding="utf-8"?>
<!-- Generator: Adobe Illustrator 21.1.0, SVG Export Plug-In . SVG Version: 6.00 Build 0)  -->
<svg version="1.1" id="Layer_1" xmlns="http://www.w3.org/2000/svg" xmlns:xlink="http://www.w3.org/1999/xlink" x="0px" y="0px"
	 width="94px" height="93.5px" viewBox="0 0 94 93.5" style="enable-background:new 0 0 94 93.5;" xml:space="preserve">
<style type="text/css">
	.st0{fill:#E26A66;}
</style>
<g>
	<path class="st0" d="M85.2,20.9c0-0.3-0.1-0.7-0.2-1c-0.3-0.6-0.9-1.1-1.5-1.2L45.2,0.2c-0.6-0.3-1.4-0.3-2,0L4.7,18.9
		c-0.8,0.4-1.2,1.1-1.3,2v0c0,0,0,0,0,0.1v46.9c0,0.9,0.5,1.7,1.3,2l38.6,18.7c0,0,0,0,0,0c0.1,0,0.1,0,0.2,0.1c0,0,0,0,0.1,0
		c0.1,0,0.1,0,0.2,0.1c0,0,0,0,0.1,0c0.1,0,0.1,0,0.2,0c0,0,0,0,0.1,0c0.1,0,0.2,0,0.2,0s0.2,0,0.2,0c0,0,0,0,0.1,0
		c0.1,0,0.1,0,0.2,0c0,0,0,0,0.1,0c0.1,0,0.1,0,0.2-0.1c0,0,0,0,0.1,0c0.1,0,0.1,0,0.2-0.1c0,0,0,0,0,0l38.7-18.8
		c0.8-0.4,1.3-1.2,1.3-2L85.2,20.9C85.2,21,85.2,20.9,85.2,20.9z M44.2,4.7l33.5,16.2l-12.3,6L31.9,10.7L44.2,4.7z M44.2,37.2
		L10.8,20.9l16-7.7l33.5,16.2L44.2,37.2z M7.9,24.6L42,41.1V83L7.9,66.5V24.6z M46.5,83V41.1l16-7.8v11c0,1.2,1,2.3,2.3,2.3
		s2.3-1,2.3-2.3V31.1l13.7-6.6v41.9L46.5,83z"/>
</g>
</svg>
