<?xml version="1.0" encoding="utf-8"?>
<!-- Generator: Adobe Illustrator 21.1.0, SVG Export Plug-In . SVG Version: 6.00 Build 0)  -->
<svg version="1.1" id="Layer_1" xmlns="http://www.w3.org/2000/svg" xmlns:xlink="http://www.w3.org/1999/xlink" x="0px" y="0px"
	 width="94px" height="93.5px" viewBox="0 0 94 93.5" style="enable-background:new 0 0 94 93.5;" xml:space="preserve">
<style type="text/css">
	.st0{fill:#E26A66;}
</style>
<g>
	<g>
		<path class="st0" d="M80.5,73.7c-0.3-0.3-0.8-0.5-1.3-0.5c-0.5,0-0.9,0.2-1.3,0.5c-0.3,0.3-0.5,0.8-0.5,1.3s0.2,0.9,0.5,1.3
			c0.3,0.3,0.8,0.5,1.3,0.5c0.5,0,0.9-0.2,1.3-0.5c0.3-0.3,0.5-0.8,0.5-1.3S80.9,74.1,80.5,73.7z"/>
	</g>
</g>
<g>
	<g>
		<path class="st0" d="M35.5,79c-3.8,0-6.8,3.1-6.8,6.8c0,3.8,3.1,6.8,6.8,6.8c3.8,0,6.8-3.1,6.8-6.8C42.4,82,39.3,79,35.5,79z
			 M35.5,89c-1.8,0-3.2-1.5-3.2-3.2c0-1.8,1.5-3.2,3.2-3.2s3.2,1.5,3.2,3.2C38.8,87.6,37.3,89,35.5,89z"/>
	</g>
</g>
<g>
	<g>
		<path class="st0" d="M68.5,79c-3.8,0-6.8,3.1-6.8,6.8c0,3.8,3.1,6.8,6.8,6.8c3.8,0,6.8-3.1,6.8-6.8C75.3,82,72.2,79,68.5,79z
			 M68.5,89c-1.8,0-3.2-1.5-3.2-3.2c0-1.8,1.5-3.2,3.2-3.2c1.8,0,3.2,1.5,3.2,3.2C71.7,87.6,70.3,89,68.5,89z"/>
	</g>
</g>
<g>
	<g>
		<path class="st0" d="M84.8,48.2c-1-0.2-1.9,0.4-2.1,1.4L80,63.1c-0.2,0.8-0.9,1.5-1.8,1.5H26.4l-7-30.6h18.5c1,0,1.8-0.8,1.8-1.8
			s-0.8-1.8-1.8-1.8H18.6l-1.9-8.3c-0.6-2.5-2.7-4.2-5.3-4.2H2.6c-1,0-1.8,0.8-1.8,1.8s0.8,1.8,1.8,1.8h8.8c0.8,0,1.6,0.6,1.8,1.4
			l12.1,52.5c0.2,0.8,0.9,1.4,1.8,1.4h45.8c1,0,1.8-0.8,1.8-1.8c0-1-0.8-1.8-1.8-1.8H28.4l-1.2-5h51c2.6,0,4.8-1.8,5.3-4.4l2.6-13.6
			C86.4,49.3,85.7,48.3,84.8,48.2z"/>
	</g>
</g>
<g>
	<g>
		<path class="st0" d="M92.1,24.9c1.1-1.9,0.9-4.2-0.7-5.7l-1.8-1.8c-0.2-0.2-0.3-0.5-0.3-0.8l0.2-2.5c0.2-2.2-1.2-4.1-3.3-4.8
			l-2.4-0.7c-0.3-0.1-0.5-0.3-0.7-0.6l-1-2.3c-0.9-2-3-3.1-5.2-2.7l-2.4,0.5c-0.3,0.1-0.6,0-0.9-0.2l-1.9-1.5
			c-1.7-1.4-4.1-1.4-5.8,0L64,3.2c-0.2,0.2-0.6,0.3-0.9,0.2L60.7,3c-2.1-0.4-4.3,0.7-5.2,2.7l-1,2.3c-0.1,0.3-0.4,0.5-0.7,0.6
			l-2.4,0.7c-2.1,0.6-3.4,2.6-3.3,4.8l0.2,2.5c0,0.3-0.1,0.6-0.3,0.8l-1.8,1.8c-1.6,1.5-1.8,3.9-0.7,5.7l1.3,2.2
			c0.2,0.3,0.2,0.6,0.1,0.9l-0.8,2.4c-0.7,2.1,0.2,4.3,2.1,5.4l2.2,1.3c0.3,0.2,0.4,0.4,0.5,0.7l0.4,2.5c0.4,2.2,2.2,3.7,4.3,3.9
			l2.5,0.1c0.3,0,0.6,0.2,0.8,0.4l1.5,2c0.9,1.2,2.3,1.8,3.7,1.8c0.7,0,1.3-0.1,1.9-0.4l2.2-1c0.3-0.1,0.6-0.1,0.9,0l2.2,1
			c2,0.9,4.3,0.3,5.7-1.4l1.5-2c0.2-0.2,0.5-0.4,0.8-0.4l2.5-0.1c2.2-0.1,4-1.7,4.3-3.9l0.4-2.5c0.1-0.3,0.2-0.6,0.5-0.7l2.2-1.3
			c1.9-1.1,2.7-3.3,2.1-5.4l-0.8-2.4c-0.1-0.3-0.1-0.6,0.1-0.9L92.1,24.9z M89,23l-1.3,2.2c-0.7,1.2-0.9,2.6-0.5,3.9l0.8,2.4
			c0.2,0.5,0,1-0.5,1.2L85.4,34c-1.2,0.7-2,1.9-2.2,3.2l-0.4,2.5c-0.1,0.5-0.5,0.8-1,0.9l-2.5,0.1c-1.4,0.1-2.6,0.7-3.5,1.8l-1.5,2
			C74,44.8,73.5,45,73,44.8l-2.2-1c-1.2-0.6-2.7-0.6-3.9,0l-2.2,1c-0.4,0.2-1,0.1-1.3-0.3l-1.5-2c-0.8-1.1-2.1-1.8-3.5-1.8l-2.5-0.1
			c-0.5,0-0.9-0.4-1-0.9l-0.4-2.5c-0.2-1.3-1-2.5-2.2-3.2l-2.2-1.3c-0.4-0.3-0.6-0.8-0.5-1.2l0.8-2.4c0.4-1.3,0.2-2.7-0.5-3.9
			L48.7,23c-0.3-0.4-0.2-1,0.2-1.3l1.8-1.8c1-1,1.5-2.3,1.4-3.6l-0.2-2.5c0-0.5,0.3-0.9,0.7-1.1L55,12c1.3-0.4,2.4-1.3,2.9-2.6
			l1-2.3c0.2-0.4,0.6-0.6,1-0.6c0.1,0,0.1,0,0.2,0L62.5,7c1.4,0.3,2.7-0.1,3.8-0.9l1.9-1.5c0.4-0.3,0.9-0.3,1.3,0L71.4,6
			c1.1,0.9,2.5,1.2,3.8,0.9l2.4-0.5c0.5-0.1,1,0.2,1.2,0.6l1,2.3c0.5,1.3,1.6,2.2,2.9,2.6l2.4,0.7c0.5,0.1,0.8,0.6,0.7,1.1l-0.2,2.5
			c-0.1,1.4,0.4,2.7,1.4,3.6l1.8,1.8C89.2,22.1,89.3,22.6,89,23z"/>
	</g>
</g>
<g>
	<g>
		<path class="st0" d="M73,16.4c-0.9-0.5-2-0.2-2.4,0.7l-8.3,14.8c-0.5,0.9-0.2,2,0.7,2.4c0.3,0.2,0.6,0.2,0.9,0.2
			c0.6,0,1.2-0.3,1.6-0.9l8.3-14.8C74.2,18,73.9,16.9,73,16.4z"/>
	</g>
</g>
<g>
	<g>
		<path class="st0" d="M74.3,25.9c-2.6,0-4.7,2.1-4.7,4.7s2.1,4.7,4.7,4.7s4.7-2.1,4.7-4.7S76.8,25.9,74.3,25.9z M74.3,31.6
			c-0.6,0-1.1-0.5-1.1-1.1c0-0.6,0.5-1.1,1.1-1.1s1.1,0.5,1.1,1.1C75.3,31.1,74.9,31.6,74.3,31.6z"/>
	</g>
</g>
<g>
	<g>
		<path class="st0" d="M63.4,13.9c-2.6,0-4.7,2.1-4.7,4.7s2.1,4.7,4.7,4.7s4.7-2.1,4.7-4.7S66,13.9,63.4,13.9z M63.4,19.7
			c-0.6,0-1.1-0.5-1.1-1.1c0-0.6,0.5-1.1,1.1-1.1s1.1,0.5,1.1,1.1C64.5,19.2,64,19.7,63.4,19.7z"/>
	</g>
</g>
</svg>
