<?xml version="1.0" encoding="utf-8"?>
<!-- Generator: Adobe Illustrator 21.1.0, SVG Export Plug-In . SVG Version: 6.00 Build 0)  -->
<svg version="1.1" id="Layer_1" xmlns="http://www.w3.org/2000/svg" xmlns:xlink="http://www.w3.org/1999/xlink" x="0px" y="0px"
	 width="94px" height="93.5px" viewBox="0 0 94 93.5" style="enable-background:new 0 0 94 93.5;" xml:space="preserve">
<style type="text/css">
	.st0{fill:#E26A66;}
</style>
<g>
	<g>
		<path class="st0" d="M79.4,13.9c-8.6-8.6-19.9-13.3-32-13.3s-23.5,4.7-32,13.3c-8.6,8.6-13.3,19.9-13.3,32s4.7,23.5,13.3,32
			c8.6,8.6,19.9,13.3,32,13.3s23.5-4.7,32-13.3c8.6-8.6,13.3-19.9,13.3-32S87.9,22.5,79.4,13.9z M89,44.1H76.8v0
			c-0.4-6.8-3.1-13-7.4-17.7l8.6-8.6C84.5,24.7,88.6,33.9,89,44.1z M49.1,4.2c10.2,0.4,19.4,4.5,26.4,11l-8.6,8.6
			c-4.8-4.3-11-7-17.8-7.4V4.2z M45.6,4.2v12.2c-6.8,0.4-13,3.1-17.9,7.4l-8.6-8.6C26.2,8.7,35.4,4.6,45.6,4.2z M16.6,17.7l8.6,8.6
			c-4.3,4.8-7,11-7.4,17.8H5.6C6.1,33.9,10.2,24.7,16.6,17.7z M5.6,47.6h2.7c0.3,5.7,1.8,11.4,4.3,16.5c0.3,0.6,0.9,1,1.6,1
			c0.3,0,0.5-0.1,0.8-0.2c0.9-0.4,1.2-1.5,0.8-2.4c-2.3-4.6-3.6-9.8-3.9-15h6c0.4,6.8,3.1,13.1,7.4,17.9l-8.6,8.6
			C10.1,67.1,6,57.8,5.6,47.6z M45.6,87.6c-10.2-0.4-19.4-4.5-26.5-11l8.6-8.6c4.8,4.3,11,7,17.8,7.4V87.6z M21.3,45.9
			c0-7.1,2.9-13.6,7.5-18.3c0,0,0.1-0.1,0.1-0.1c0,0,0.1-0.1,0.1-0.1c4.7-4.6,11.2-7.5,18.3-7.5c14.3,0,26,11.7,26,26
			s-11.7,26-26,26S21.3,60.3,21.3,45.9z M49.1,87.6V75.4h0c6.8-0.4,13-3.1,17.8-7.4l8.6,8.6C68.5,83.1,59.3,87.2,49.1,87.6z
			 M78.1,74.1l-8.6-8.6c4.3-4.8,7-11,7.4-17.9H89C88.6,57.8,84.5,67.1,78.1,74.1z"/>
	</g>
</g>
<g>
	<g>
		<path class="st0" d="M18.8,67.7c0-0.1-0.1-0.1-0.1-0.2c-0.6-0.8-1.7-0.9-2.5-0.3c-0.7,0.6-0.9,1.6-0.4,2.4
			c0.3,0.5,0.9,0.8,1.5,0.8c0.3,0,0.6-0.1,0.9-0.3C19,69.6,19.3,68.5,18.8,67.7z"/>
	</g>
</g>
<g>
	<g>
		<path class="st0" d="M47.5,65.2C47.5,65.2,47.5,65.2,47.5,65.2L47.5,65.2c-1,0-1.8,0.8-1.8,1.8c0,1,0.8,1.8,1.8,1.8c0,0,0,0,0,0
			l0.1,0c1,0,1.8-0.8,1.8-1.8C49.3,66,48.5,65.2,47.5,65.2z"/>
	</g>
</g>
<g>
	<g>
		<path class="st0" d="M63.3,29.7c-4.3-4.3-10.1-6.6-16.2-6.6c-12.6,0.1-22.7,10.4-22.6,23c0,4.7,1.5,9.3,4.3,13.1
			c2.7,3.8,6.4,6.6,10.8,8.1c0.2,0.1,0.4,0.1,0.6,0.1c0.7,0,1.4-0.4,1.7-1.2c0.3-0.9-0.1-1.9-1.1-2.3c-7.5-2.7-12.6-10-12.7-18
			C28,35.5,36.5,26.7,47.2,26.6c5.1,0,10,1.9,13.7,5.5c3.7,3.6,5.7,8.4,5.8,13.6c0.1,8-4.9,15.3-12.4,18.2c-0.9,0.3-1.4,1.4-1,2.3
			c0.3,0.9,1.4,1.4,2.3,1c4.3-1.6,8-4.5,10.6-8.3c2.7-3.9,4.1-8.4,4.1-13.2C70.1,39.6,67.7,33.9,63.3,29.7z"/>
	</g>
</g>
<g>
	<g>
		<path class="st0" d="M59.5,54.1h-6.2c3.4-3.2,7.9-8.3,7.9-12.6c0-4-3.2-7.2-7.2-7.2c-4,0-7.2,3.2-7.2,7.2c0,1,0.8,1.8,1.8,1.8
			s1.8-0.8,1.8-1.8c0-2,1.7-3.7,3.7-3.7s3.7,1.7,3.7,3.7c0,3.6-6.3,9.9-10.2,13c-0.6,0.5-0.8,1.3-0.6,2c0.2,0.7,0.9,1.2,1.7,1.2
			h10.9c1,0,1.8-0.8,1.8-1.8S60.5,54.1,59.5,54.1z"/>
	</g>
</g>
<g>
	<g>
		<path class="st0" d="M41.9,45.9l3-3c0.7-0.7,0.7-1.8,0-2.5c-0.7-0.7-1.8-0.7-2.5,0l-3,3l-3-3c-0.7-0.7-1.8-0.7-2.5,0
			c-0.7,0.7-0.7,1.8,0,2.5l3,3l-3,3c-0.7,0.7-0.7,1.8,0,2.5c0.3,0.3,0.8,0.5,1.3,0.5s0.9-0.2,1.3-0.5l3-3l3,3
			c0.3,0.3,0.8,0.5,1.3,0.5s0.9-0.2,1.3-0.5c0.7-0.7,0.7-1.8,0-2.5L41.9,45.9z"/>
	</g>
</g>
</svg>
