<?xml version="1.0" encoding="utf-8"?>
<!-- Generator: Adobe Illustrator 21.1.0, SVG Export Plug-In . SVG Version: 6.00 Build 0)  -->
<svg version="1.1" id="Layer_1" xmlns="http://www.w3.org/2000/svg" xmlns:xlink="http://www.w3.org/1999/xlink" x="0px" y="0px"
	 width="94px" height="93.5px" viewBox="0 0 94 93.5" style="enable-background:new 0 0 94 93.5;" xml:space="preserve">
<style type="text/css">
	.st0{fill:#E26A66;}
</style>
<g>
	<g>
		<path class="st0" d="M86.9,6.2H8.6C4.4,6.2,1,9.6,1,13.8v7.4c0,0.9,0.7,1.6,1.6,1.6s1.6-0.7,1.6-1.6v-7.4c0-2.4,1.9-4.3,4.3-4.3
			h78.2c2.4,0,4.3,1.9,4.3,4.3v48.7c0,0.9,0.7,1.6,1.6,1.6c0.9,0,1.6-0.7,1.6-1.6V13.8C94.5,9.6,91.1,6.2,86.9,6.2z"/>
	</g>
</g>
<g>
	<g>
		<path class="st0" d="M92.8,66.9c-0.9,0-1.6,0.7-1.6,1.6c0,2.4-1.9,4.3-4.3,4.3H8.6c-2.4,0-4.3-1.9-4.3-4.3V27.5
			c0-0.9-0.7-1.6-1.6-1.6c-0.9,0-1.6,0.7-1.6,1.6v41.1c0,4.2,3.4,7.6,7.6,7.6H40l-2,8.3h-7.8c-0.9,0-1.6,0.7-1.6,1.6
			s0.7,1.6,1.6,1.6h9.1h16.9h9.1c0.9,0,1.6-0.7,1.6-1.6s-0.7-1.6-1.6-1.6h-7.8l-2-8.3h31.4c4.2,0,7.6-3.4,7.6-7.6
			C94.5,67.7,93.7,66.9,92.8,66.9z M41.4,84.5l2-8.3h8.8l2,8.3H41.4z"/>
	</g>
</g>
<g>
	<g>
		<path class="st0" d="M87.3,64.7H8.2c-0.9,0-1.6,0.7-1.6,1.6c0,0.9,0.7,1.6,1.6,1.6h79.1c0.9,0,1.6-0.7,1.6-1.6
			C88.9,65.4,88.2,64.7,87.3,64.7z"/>
	</g>
</g>
<g>
	<g>
		<path class="st0" d="M87.3,14.3H8.2c-0.9,0-1.6,0.7-1.6,1.6s0.7,1.6,1.6,1.6h79.1c0.9,0,1.6-0.7,1.6-1.6
			C88.9,15.1,88.2,14.3,87.3,14.3z"/>
	</g>
</g>
<g>
	<g>
		<path class="st0" d="M51.5,27.1h-5.5v0c-0.9,0-1.6,0.7-1.6,1.6v24.9c0,0.9,0.7,1.6,1.6,1.6s1.6-0.7,1.6-1.6v-6.4h3.9
			c3.3,0,6-2.7,6-6v-8.2C57.5,29.8,54.8,27.1,51.5,27.1z M54.2,41.3c0,1.5-1.2,2.7-2.7,2.7h-3.9V30.3h3.9c1.5,0,2.7,1.2,2.7,2.7
			V41.3z"/>
	</g>
</g>
<g>
	<g>
		<path class="st0" d="M38.1,53.2l-2-7.9c-0.2-0.9-1.1-1.4-2-1.2c-0.9,0.2-1.4,1.1-1.2,2l0.2,0.7h-5.9l3-11.5l1.5,6
			c0.2,0.9,1.1,1.4,2,1.2c0.9-0.2,1.4-1.1,1.2-2l-3.1-12.2c-0.2-0.7-0.8-1.2-1.6-1.2s-1.4,0.5-1.6,1.2l-6.4,24.9
			c-0.2,0.9,0.3,1.8,1.2,2c0.1,0,0.3,0.1,0.4,0.1c0.7,0,1.4-0.5,1.6-1.2l1-3.9h7.6l1,3.9c0.2,0.7,0.9,1.2,1.6,1.2
			c0.1,0,0.3,0,0.4-0.1C37.8,55,38.3,54.1,38.1,53.2z"/>
	</g>
</g>
<g>
	<g>
		<path class="st0" d="M71.8,52H69V30.3h2.8c0.9,0,1.6-0.7,1.6-1.6s-0.7-1.6-1.6-1.6h-9c-0.9,0-1.6,0.7-1.6,1.6s0.7,1.6,1.6,1.6h2.8
			V52h-2.8c-0.9,0-1.6,0.7-1.6,1.6c0,0.9,0.7,1.6,1.6,1.6h9c0.9,0,1.6-0.7,1.6-1.6C73.5,52.7,72.7,52,71.8,52z"/>
	</g>
</g>
</svg>
