<?xml version="1.0" encoding="utf-8"?>
<!-- Generator: Adobe Illustrator 21.1.0, SVG Export Plug-In . SVG Version: 6.00 Build 0)  -->
<svg version="1.1" id="Layer_1" xmlns="http://www.w3.org/2000/svg" xmlns:xlink="http://www.w3.org/1999/xlink" x="0px" y="0px"
	 width="94px" height="93.5px" viewBox="0 0 94 93.5" style="enable-background:new 0 0 94 93.5;" xml:space="preserve">
<style type="text/css">
	.st0{fill:#E26A66;}
</style>
<g>
	<g>
		<path class="st0" d="M62.9,47.5L55.2,44c-0.5-0.2-0.9-0.8-0.9-1.4v-2.1c2.6-2.1,4.3-5.3,4.3-8.8v-3c0.9-0.5,1.4-1.4,1.4-2.4V26
			c0-6.2-5.1-11.3-11.3-11.3h-2.8c-6.2,0-11.3,5.1-11.3,11.3v2.6c0,0.9,0.4,1.7,1.1,2.2c0.1,0.1,0.2,0.2,0.4,0.2v0.6
			c0,3.6,1.7,6.8,4.3,8.8v2.1c0,0.6-0.4,1.1-0.9,1.4l-7.7,3.4c-2.5,1.1-4.2,3.6-4.2,6.4v17.6c0,0.7,0.6,1.3,1.3,1.3
			c0.7,0,1.3-0.6,1.3-1.3V53.9c0-0.2,0-0.3,0-0.5l3.6,3.6c0.6,0.6,0.9,1.3,0.9,2.1v12.5c0,0.7,0.6,1.3,1.3,1.3
			c0.7,0,1.3-0.6,1.3-1.3V59.1c0-1.5-0.6-2.9-1.6-4l-4.2-4.2c0.4-0.4,0.8-0.7,1.4-1l7.6-3.4l5.6,5.6v19.4c0,0.7,0.6,1.3,1.3,1.3
			c0.7,0,1.3-0.6,1.3-1.3V52.2l5.6-5.6l7.6,3.4c0.5,0.2,1,0.6,1.4,1l-4.2,4.2c-1.1,1.1-1.6,2.5-1.6,4v12.5c0,0.7,0.6,1.3,1.3,1.3
			c0.7,0,1.3-0.6,1.3-1.3V59.1c0-0.8,0.3-1.5,0.9-2.1l3.6-3.6c0,0.2,0,0.3,0,0.5v17.6c0,0.7,0.6,1.3,1.3,1.3c0.7,0,1.3-0.6,1.3-1.3
			V53.9C67.1,51.1,65.4,48.6,62.9,47.5z M47.2,49.7l-4.9-4.9c0.4-0.6,0.6-1.4,0.6-2.1v-0.5c1.3,0.6,2.8,0.9,4.4,0.9s3-0.3,4.4-0.9
			v0.5c0,0.8,0.2,1.5,0.6,2.1L47.2,49.7z M47.2,40.3c-4.8,0-8.6-3.9-8.6-8.6v-0.6c0.8-0.3,1.6-0.9,2.4-1.6c0.5-0.5,0.6-1.3,0.1-1.9
			c-0.5-0.5-1.3-0.6-1.9-0.1c-0.7,0.6-1.3,1-2,1.2c0,0,0,0,0,0c0,0,0-0.1,0-0.1V26c0-4.8,3.9-8.6,8.6-8.6h2.8c4.8,0,8.6,3.9,8.6,8.6
			v0.3c0,0,0,0.1-0.1,0.1c-8,1.6-12-1.4-13.3-2.7c-0.5-0.5-1.4-0.5-1.9,0c-0.5,0.5-0.5,1.4,0,1.9c4.1,4.1,10.2,4.2,13.8,3.8v2.4
			C55.9,36.5,52,40.3,47.2,40.3z"/>
	</g>
</g>
<g>
	<g>
		<path class="st0" d="M25.8,40.2v-2.8c0-3.5-1.8-6.5-4.5-8.3c0.2-0.5,0.3-1.1,0.3-1.7c0-3.1-2.5-5.6-5.6-5.6s-5.6,2.5-5.6,5.6
			c0,0.6,0.1,1.1,0.3,1.7c-2.7,1.8-4.5,4.8-4.5,8.3v2.8c0,3.4,1.7,6.3,4.3,8.1v2.9c0,0.6-0.3,1.1-0.8,1.4l-4.6,2.3
			c-1.9,1-3.1,2.9-3.1,5v11.6c0,0.7,0.6,1.3,1.3,1.3s1.3-0.6,1.3-1.3v-11l2.2,2.2c0.6,0.6,0.9,1.3,0.9,2.1v6.8
			c0,0.7,0.6,1.3,1.3,1.3s1.3-0.6,1.3-1.3v-6.8c0-1.5-0.6-2.9-1.6-4l-3-3c0,0,0,0,0,0c0.2-0.2,0.4-0.3,0.6-0.4l4.6-2.3
			c0.2-0.1,0.5-0.3,0.7-0.4l3.3,3.3v13.7c0,0.7,0.6,1.3,1.3,1.3s1.3-0.6,1.3-1.3V57.9l3.3-3.3c0.2,0.2,0.4,0.3,0.7,0.4l1.3,0.6
			c0.2,0.1,0.4,0.1,0.6,0.1c0.5,0,1-0.3,1.2-0.7c0.3-0.7,0.1-1.5-0.6-1.8l-1.3-0.6c-0.5-0.3-0.8-0.8-0.8-1.4v-2.9
			C24.1,46.6,25.8,43.6,25.8,40.2z M16,24.5c1.6,0,2.9,1.3,2.9,2.9c0,0.2,0,0.4,0,0.5c-0.9-0.3-1.9-0.4-2.9-0.4c-1,0-2,0.2-2.9,0.4
			c0-0.2-0.1-0.3-0.1-0.5C13,25.8,14.3,24.5,16,24.5z M16,30.2c4,0,7.2,3.2,7.2,7.2v0.5c-5.5,1.7-8.8-2.5-9-2.7
			c-0.2-0.3-0.6-0.5-1-0.5c-0.4,0-0.8,0.1-1,0.4c-1.3,1.3-2.5,1.9-3.4,2.2C8.8,33.3,12,30.2,16,30.2z M16,55.4l-3.1-3.1
			C13,52,13,51.6,13,51.3v-1.6c0.9,0.3,1.9,0.4,2.9,0.4s2-0.2,2.9-0.4v1.6c0,0.4,0,0.7,0.1,1.1L16,55.4z M16,47.4
			c-4,0-7.2-3.2-7.2-7.2V40c1.1-0.2,2.6-0.8,4.3-2.1c0.6,0.5,1.4,1.2,2.5,1.8c1.3,0.7,3,1.3,5.1,1.3c0.8,0,1.7-0.1,2.6-0.3
			C22.9,44.4,19.8,47.4,16,47.4z"/>
	</g>
</g>
<g>
	<g>
		<path class="st0" d="M89.6,52.1l-7.4-3.7c-0.5-0.3-0.8-0.8-0.8-1.4v-1.9c1.7-1.5,2.8-3.8,2.8-6.3v-1.5c0,0,0.1,0,0.1,0
			c0.7,0,1.3-0.6,1.3-1.3v-2.8c0-4.7-3.8-8.4-8.4-8.4h-2.8c-4.7,0-8.4,3.8-8.4,8.4V36c0,0.7,0.6,1.3,1.3,1.3c0,0,0,0,0.1,0v1.5
			c0,2.5,1.1,4.8,2.8,6.3V47c0,0.6-0.3,1.1-0.8,1.4c-0.7,0.3-0.9,1.1-0.6,1.8c0.2,0.5,0.7,0.7,1.2,0.7c0.2,0,0.4,0,0.6-0.1
			c0.2-0.1,0.5-0.3,0.7-0.4l3.3,3.3v17.9c0,0.7,0.6,1.3,1.3,1.3s1.3-0.6,1.3-1.3V53.6l3.3-3.3c0.2,0.2,0.4,0.3,0.7,0.4l7.2,3.6
			L86,56.5c-1.1,1.1-1.6,2.5-1.6,4v11c0,0.7,0.6,1.3,1.3,1.3s1.3-0.6,1.3-1.3v-11c0-0.8,0.3-1.5,0.9-2.1l2.1-2.1
			c0.1,0.2,0.1,0.5,0.1,0.7v14.4c0,0.7,0.6,1.3,1.3,1.3s1.3-0.6,1.3-1.3V57.1C92.7,55,91.5,53,89.6,52.1z M68.5,34.4v-1.2h0
			c0-3.2,2.6-5.8,5.8-5.8h2.8c3.2,0,5.8,2.6,5.8,5.8v1.5c-5.8-0.3-9.3-2.6-9.3-2.6c-0.2-0.2-0.5-0.2-0.7-0.2c-0.3,0-0.7,0.1-0.9,0.4
			C70.6,33.5,69.4,34.1,68.5,34.4z M75.7,51.2l-3.1-3.1c0.1-0.3,0.1-0.7,0.1-1.1v-0.3c0.9,0.3,1.9,0.5,2.9,0.5c1,0,2-0.2,2.9-0.5V47
			c0,0.4,0,0.7,0.1,1.1L75.7,51.2z M75.7,44.6c-3.2,0-5.8-2.6-5.8-5.8v-2.1l0,0c0.9-0.4,2-1,3.1-1.9c1.4,0.7,4.3,2,8.4,2.4v1.7
			C81.5,42,78.9,44.6,75.7,44.6z"/>
	</g>
</g>
</svg>
