<?xml version="1.0" encoding="utf-8"?>
<!-- Generator: Adobe Illustrator 21.1.0, SVG Export Plug-In . SVG Version: 6.00 Build 0)  -->
<svg version="1.1" id="Layer_1" xmlns="http://www.w3.org/2000/svg" xmlns:xlink="http://www.w3.org/1999/xlink" x="0px" y="0px"
	 width="94px" height="93.5px" viewBox="0 0 94 93.5" style="enable-background:new 0 0 94 93.5;" xml:space="preserve">
<style type="text/css">
	.st0{fill:#E26A66;}
</style>
<g>
	<g>
		<circle class="st0" cx="7.7" cy="83.7" r="1.6"/>
	</g>
</g>
<g>
	<g>
		<circle class="st0" cx="47.6" cy="44" r="1.6"/>
	</g>
</g>
<g>
	<g>
		<path class="st0" d="M68.1,24.3c-1.3-1.3-2.9-1.9-4.7-1.9c-1.8,0-3.4,0.7-4.7,1.9c-2.6,2.6-2.6,6.8,0,9.4c1.3,1.3,3,1.9,4.7,1.9
			c1.7,0,3.4-0.6,4.7-1.9C70.7,31.1,70.7,26.8,68.1,24.3z M65.9,31.4c-1.4,1.4-3.6,1.4-5,0c-1.4-1.4-1.4-3.6,0-5
			c0.7-0.7,1.5-1,2.5-1s1.8,0.4,2.5,1C67.2,27.8,67.2,30.1,65.9,31.4z"/>
	</g>
</g>
<g>
	<g>
		<path class="st0" d="M25.6,69.8c-0.8-0.4-1.7-0.1-2.1,0.7l-1.9,3.7c-0.8,1.6-2.4,2.7-4.2,2.8l-2.2,0.1c-0.4,0-0.6-0.2-0.7-0.3
			s-0.3-0.4-0.3-0.7l0.1-2.2c0.1-1.8,1.2-3.4,2.8-4.2L21,68c0.8-0.4,1.1-1.3,0.7-2.1c-0.4-0.8-1.3-1.1-2.1-0.7l-3.7,1.9
			c-2.6,1.3-4.4,3.9-4.6,6.8l-0.1,2.2c-0.1,1.2,0.3,2.3,1.2,3.1c0.8,0.8,1.8,1.2,2.9,1.2c0.1,0,0.2,0,0.3,0l2.2-0.1
			c2.9-0.2,5.5-1.9,6.8-4.6l1.9-3.7C26.7,71.2,26.4,70.2,25.6,69.8z"/>
	</g>
</g>
<g>
	<g>
		<path class="st0" d="M84.6,7.2c-0.7-0.7-1.7-1.1-2.8-1l-1.5,0.1c-13,0.8-25.2,7.1-33.4,17.2l-3.4,4.2l-8.9-0.3c0,0,0,0,0,0
			c-7.1,0-13.8,2.8-18.8,7.8l-9.2,9.2c-0.4,0.4-0.6,1.1-0.4,1.7c0.2,0.6,0.8,1,1.4,1L27,48l-0.8,1c-0.4,0.5-0.5,1.2-0.2,1.7
			c0.3,0.6,0.6,1.1,1,1.6l-4.6,5.5C22,58.3,22,59,22.2,59.5c1,2.1,2.3,4,4,5.7c1.7,1.7,3.6,3.1,5.8,4.1c0.2,0.1,0.4,0.1,0.7,0.1
			c0.4,0,0.7-0.1,1-0.3c1-0.8,2.1-1.8,3.2-2.7c0.8-0.7,1.6-1.3,2.3-1.9c0.4,0.3,0.9,0.5,1.4,0.8c0.2,0.1,0.5,0.2,0.7,0.2
			c0.3,0,0.7-0.1,1-0.3l1.1-0.8l1,19.5c0,0.6,0.4,1.2,1,1.4c0.2,0.1,0.4,0.1,0.6,0.1c0.4,0,0.8-0.2,1.1-0.5l9.2-9.2
			c5-5,7.8-11.7,7.8-18.8v-8.5l3.6-2.8C78.4,37.1,85,24.4,85.7,10.7l0-0.8C85.8,8.9,85.4,7.9,84.6,7.2z M11.3,44.1l6.7-6.7
			c4.4-4.4,10.3-6.9,16.6-6.9l6.5,0.2L29.5,45L11.3,44.1z M34.9,64c-0.8,0.7-1.6,1.4-2.4,2c-1.5-0.8-2.9-1.8-4-3
			c-1.1-1.2-2.1-2.5-2.9-3.9l3.4-4c1,1.4,2.1,2.7,3.3,3.9c0,0,0,0,0,0c0,0,0,0,0,0c0,0,0,0,0,0c1.3,1.3,2.8,2.6,4.3,3.7
			C36,63.1,35.4,63.6,34.9,64z M60.8,56.8c0,6.3-2.4,12.1-6.9,16.6l-6.7,6.7l-0.9-18.1l14.5-11.2L60.8,56.8L60.8,56.8z M82.5,10.5
			C81.9,23.3,75.8,35.2,65.7,43L41.2,62c-2-1.2-3.9-2.6-5.7-4.2l8.2-8.2c0.6-0.6,0.6-1.6,0-2.2c-0.6-0.6-1.6-0.6-2.2,0l-8.2,8.2
			c-1.5-1.7-2.9-3.5-4-5.5l20.1-24.7C57.1,16,68.5,10.1,80.6,9.4l1.5-0.1c0.2,0,0.3,0.1,0.4,0.1c0.1,0.1,0.2,0.2,0.1,0.4L82.5,10.5z
			"/>
	</g>
</g>
</svg>
