<?xml version="1.0" encoding="utf-8"?>
<!-- Generator: Adobe Illustrator 21.1.0, SVG Export Plug-In . SVG Version: 6.00 Build 0)  -->
<svg version="1.1" id="Layer_1" xmlns="http://www.w3.org/2000/svg" xmlns:xlink="http://www.w3.org/1999/xlink" x="0px" y="0px"
	 width="94px" height="93.5px" viewBox="0 0 94 93.5" style="enable-background:new 0 0 94 93.5;" xml:space="preserve">
<style type="text/css">
	.st0{fill:#E26A66;}
</style>
<g>
	<g>
		<circle class="st0" cx="1.8" cy="91.6" r="1.8"/>
	</g>
</g>
<g>
	<g>
		<circle class="st0" cx="49" cy="44.8" r="1.8"/>
	</g>
</g>
<g>
	<g>
		<path class="st0" d="M73.2,21.4c-1.5-1.5-3.5-2.3-5.5-2.3c-2.1,0-4.1,0.8-5.5,2.3c-3.1,3.1-3.1,8,0,11.1c1.5,1.5,3.5,2.3,5.5,2.3
			c2,0,4-0.8,5.5-2.3C76.2,29.4,76.2,24.5,73.2,21.4z M70.6,29.9c-1.6,1.6-4.3,1.6-5.9,0c-1.6-1.6-1.6-4.3,0-5.9
			c0.8-0.8,1.8-1.2,2.9-1.2s2.2,0.4,2.9,1.2C72.2,25.6,72.2,28.3,70.6,29.9z"/>
	</g>
</g>
<g>
	<g>
		<path class="st0" d="M23,75.3c-0.9-0.5-2-0.1-2.5,0.8l-2.2,4.4c-1,1.9-2.9,3.2-5,3.3L10.8,84c-0.4,0-0.7-0.2-0.8-0.3
			c-0.1-0.1-0.3-0.4-0.3-0.8l0.2-2.6c0.1-2.1,1.4-4.1,3.3-5l4.4-2.2c0.9-0.5,1.3-1.6,0.8-2.5c-0.5-0.9-1.6-1.3-2.5-0.8L11.5,72
			c-3.1,1.5-5.1,4.6-5.4,8.1L6,82.6c-0.1,1.4,0.4,2.7,1.4,3.7c0.9,0.9,2.1,1.4,3.4,1.4c0.1,0,0.2,0,0.3,0l2.6-0.2
			c3.4-0.2,6.5-2.3,8.1-5.4l2.2-4.4C24.3,76.8,23.9,75.7,23,75.3z"/>
	</g>
</g>
<g>
	<g>
		<path class="st0" d="M92.7,1.2c-0.9-0.9-2.1-1.3-3.3-1.2l-1.7,0.1C72.4,1.1,58,8.5,48.2,20.5l-4,5l-10.6-0.3c0,0,0,0-0.1,0
			c-8.4,0-16.3,3.3-22.2,9.2L0.5,45.2c-0.5,0.5-0.7,1.3-0.4,2c0.3,0.7,0.9,1.1,1.6,1.2l22.9,1.2l-0.9,1.2c-0.5,0.6-0.5,1.4-0.2,2
			c0.4,0.7,0.7,1.3,1.1,1.9l-5.4,6.5c-0.5,0.6-0.6,1.3-0.3,2c1.2,2.5,2.8,4.8,4.7,6.7c2,2,4.3,3.6,6.8,4.8c0.3,0.1,0.5,0.2,0.8,0.2
			c0.4,0,0.8-0.1,1.2-0.4c1.2-0.9,2.5-2.1,3.8-3.2c0.9-0.8,1.9-1.6,2.8-2.3c0.5,0.3,1.1,0.6,1.6,0.9c0.3,0.2,0.6,0.2,0.9,0.2
			c0.4,0,0.8-0.1,1.1-0.4l1.3-1l1.2,23c0,0.7,0.5,1.4,1.2,1.6c0.2,0.1,0.4,0.1,0.7,0.1c0.5,0,1-0.2,1.3-0.5l10.8-10.8
			c5.9-5.9,9.2-13.8,9.2-22.2V49.8l4.3-3.3C85.4,36.5,93.2,21.6,94,5.4l0-0.9C94.1,3.3,93.6,2.1,92.7,1.2z M6.1,44.9L14,37
			c5.2-5.2,12.2-8.1,19.6-8.1l7.7,0.2L27.6,46L6.1,44.9z M33.9,68.4c-1,0.8-1.9,1.6-2.9,2.4c-1.8-1-3.4-2.2-4.8-3.6
			c-1.4-1.4-2.5-2.9-3.4-4.6l4-4.7c1.2,1.6,2.5,3.1,3.9,4.6c0,0,0,0,0,0c0,0,0,0,0,0c0,0,0,0,0,0c1.6,1.6,3.3,3,5.1,4.4
			C35.2,67.3,34.6,67.8,33.9,68.4z M64.6,59.9c0,7.4-2.9,14.4-8.1,19.6l-7.9,7.9l-1.1-21.4l17.1-13.3L64.6,59.9L64.6,59.9z
			 M90.3,5.2c-0.7,15.1-8,29.1-20,38.4L41.4,66c-2.4-1.4-4.6-3.1-6.7-4.9l9.7-9.7c0.7-0.7,0.7-1.9,0-2.6c-0.7-0.7-1.9-0.7-2.6,0
			l-9.7,9.7c-1.8-2-3.4-4.1-4.7-6.4l23.7-29.2C60.2,11.6,73.6,4.7,88,3.8l1.7-0.1c0.2,0,0.4,0.1,0.4,0.2c0.1,0.1,0.2,0.2,0.2,0.4
			L90.3,5.2z"/>
	</g>
</g>
</svg>
