<?xml version="1.0" encoding="utf-8"?>
<!-- Generator: Adobe Illustrator 21.1.0, SVG Export Plug-In . SVG Version: 6.00 Build 0)  -->
<svg version="1.1" id="Layer_1" xmlns="http://www.w3.org/2000/svg" xmlns:xlink="http://www.w3.org/1999/xlink" x="0px" y="0px"
	 width="94px" height="93.5px" viewBox="0 0 94 93.5" style="enable-background:new 0 0 94 93.5;" xml:space="preserve">
<style type="text/css">
	.st0{fill:#E26A66;}
</style>
<g>
	<path class="st0" d="M93.2,42.8h-4.5V22.2c0-4.9-4-9-9-9h-6.1L67.4,2c-0.9-1.7-2.8-2.8-4.7-2.8c-0.9,0-1.8,0.2-2.6,0.7L36.2,13.2
		H9.6c-4.9,0-9,4-9,9v61.6c0,4.9,4,9,9,9h70.2c4.9,0,9-4,9-9V65.7h4.5L93.2,42.8L93.2,42.8z M79.7,16.8c2.8,0,5,2.1,5.3,4.8h-6.7
		l-2.7-4.8H79.7z M61.9,3.1c0.8-0.5,2-0.1,2.4,0.7l9.9,17.8H28.6L61.9,3.1z M85.1,83.8c0,3-2.4,5.4-5.4,5.4H9.6
		c-3,0-5.4-2.4-5.4-5.4V22.2c0-3,2.4-5.4,5.4-5.4h20.2l-8.6,4.8H10.7c-1,0-1.8,0.8-1.8,1.8c0,1,0.8,1.8,1.8,1.8h4h65.6h4.8v17.7H72
		c-6.1,0-11.1,5-11.1,11.1v0.8c0,6.1,5,11.1,11.1,11.1h13.1L85.1,83.8L85.1,83.8z M89.6,62.1h-0.9H72c-4.1,0-7.5-3.3-7.5-7.5v-0.8
		c0-4.1,3.3-7.5,7.5-7.5h16.7h0.9V62.1z M77.5,54.4c0,2.2-1.8,4-4,4c-2.2,0-4-1.8-4-4c0-2.2,1.8-4,4-4
		C75.7,50.5,77.5,52.2,77.5,54.4z"/>
</g>
</svg>
