<?xml version="1.0" encoding="utf-8"?>
<!-- Generator: Adobe Illustrator 21.1.0, SVG Export Plug-In . SVG Version: 6.00 Build 0)  -->
<svg version="1.1" id="Layer_1" xmlns="http://www.w3.org/2000/svg" xmlns:xlink="http://www.w3.org/1999/xlink" x="0px" y="0px"
	 viewBox="0 0 84.6 84.6" style="enable-background:new 0 0 84.6 84.6;" xml:space="preserve">
<style type="text/css">
	.st0{fill:#1C1E35;}
	.st1{fill:#143A6B;}
	.st2{fill:#34DDEC;}
	.st3{fill:#5FFDC5;}
	.st4{fill:#153A6B;}
	.st5{fill:#F36262;}
	.st6{fill:#FEAF01;}
</style>
<g>
	<g>
		<path class="st0" d="M9.6,56c0-0.1,0-0.1-0.1-0.2c0-0.1,0-0.2,0-0.3c-0.2-6.2-0.4-12.5-0.7-18.7c-0.1-1.9-0.1-3.8-0.2-5.8
			c0.1-0.1,0.2-0.3,0.3-0.4c1.4-1.5,2.8-3,4.1-4.4c2.5-2.6,4.9-5.3,7.4-7.9c2.1-2.3,4.2-4.5,6.3-6.8c0,0,0.1,0,0.1-0.1
			c0.2,0,0.3,0,0.5,0c7.5-0.3,15.1-0.5,22.6-0.8c1.8-0.1,3.5-0.1,5.3-0.2c0.1,0,0.2,0,0.2,0.1c0.1,0.1,0.1,0.2,0.2,0.3
			c0.6,0.6,1.2,1.1,1.9,1.7c2.1,1.9,4.1,3.8,6.2,5.8c2.5,2.3,5,4.7,7.5,7c0.6,0.5,1.2,1,1.7,1.5c0,0.1,0,0.1,0.1,0.2
			c0,0.2,0,0.4,0,0.6c0.3,7.4,0.5,14.7,0.8,22.1c0.1,1.9,0.1,3.8,0.2,5.8c-0.1,0.2-0.3,0.4-0.4,0.5c-1.4,1.6-2.9,3.1-4.3,4.7
			c-2.5,2.7-5,5.4-7.5,8.1c-1.8,2-3.7,3.9-5.5,5.9c-0.1,0.1-0.2,0.3-0.2,0.4c0,0,0,0,0,0c0,0-0.1,0-0.1,0c0,0,0,0,0,0
			c-0.1,0-0.1,0-0.2,0c-7.1,0.2-14.2,0.5-21.3,0.7c-1.1,0-2.2,0.1-3.3,0.2c-0.1,0-0.1,0-0.2,0c-0.1-0.1-0.2-0.3-0.4-0.4
			c-2-1.8-3.9-3.6-5.9-5.5c-2.7-2.5-5.4-5.1-8.1-7.6c-2-1.8-3.9-3.7-5.9-5.5C10.4,56.6,10,56.3,9.6,56z"/>
		<path class="st1" d="M9.6,56c0.4,0.3,0.7,0.6,1.1,0.9c2,1.8,3.9,3.7,5.9,5.5c2.7,2.5,5.4,5.1,8.1,7.6c2,1.8,3.9,3.6,5.9,5.5
			c0.1,0.1,0.3,0.3,0.4,0.4c-1.9,0.1-3.8,0.2-5.7,0.2c-2.4,0.1-4.8,0.2-7.2,0.3c-4.2,0.1-7.8-3.1-7.9-7.3c-0.2-4.3-0.3-8.5-0.4-12.8
			C9.6,56.2,9.6,56.1,9.6,56z"/>
		<path class="st2" d="M55.4,10.5c-1.8,0.1-3.5,0.1-5.3,0.2C42.6,11,35,11.2,27.5,11.5c-0.2,0-0.3,0-0.5,0c1.3-1.4,2.6-2.8,3.8-4.2
			c1.5-1.6,3-3.2,4.4-4.8c2.9-3.2,7.8-3.5,11-0.6c3,2.7,5.9,5.5,8.9,8.3C55.3,10.4,55.3,10.4,55.4,10.5z"/>
		<path class="st3" d="M74.1,55.4c-0.1-1.9-0.1-3.8-0.2-5.8c-0.3-7.4-0.5-14.7-0.8-22.1c0-0.2,0-0.4,0-0.6c0.5,0.5,1.1,0.9,1.6,1.4
			c2.5,2.3,5,4.6,7.4,6.9c3.2,3,3.3,7.9,0.3,11.1C79.7,49.5,76.9,52.5,74.1,55.4C74.1,55.5,74.1,55.5,74.1,55.4z"/>
		<path class="st4" d="M26.9,11.6c-2.1,2.3-4.2,4.5-6.3,6.8c-2.5,2.6-4.9,5.3-7.4,7.9c-1.4,1.5-2.8,3-4.1,4.4
			c-0.1,0.1-0.2,0.3-0.3,0.4c0,0,0,0,0,0c-0.1-3.2-0.2-6.4-0.3-9.7c0-1.3-0.1-2.5,0.2-3.8c0.8-3.2,3.6-5.5,6.9-5.7
			c3.7-0.2,7.5-0.3,11.2-0.4C26.8,11.5,26.9,11.5,26.9,11.6z"/>
		<path class="st4" d="M74.1,55.4C74.1,55.5,74.1,55.5,74.1,55.4c0.1,2,0.2,3.9,0.2,5.9c0.1,2,0.2,4.1,0.2,6.1
			c-0.2,3.9-3.3,7-7.2,7.2c-3.6,0.2-7.3,0.3-10.9,0.4c-0.1,0-0.2,0-0.2,0c0.1-0.1,0.1-0.3,0.2-0.4c1.8-2,3.7-3.9,5.5-5.9
			c2.5-2.7,5-5.4,7.5-8.1c1.4-1.6,2.9-3.1,4.3-4.7C73.8,55.8,73.9,55.6,74.1,55.4z"/>
		<path class="st5" d="M31.1,75.9c1.1-0.1,2.2-0.1,3.3-0.2c7.1-0.3,14.2-0.5,21.3-0.7c0.1,0,0.1,0,0.2,0c-2.2,2.4-4.4,4.8-6.7,7.2
			c-2.9,3.1-7.8,3.3-10.9,0.5c-2.4-2.2-4.7-4.4-7.1-6.6C31.2,76,31.1,75.9,31.1,75.9z"/>
		<path class="st6" d="M8.7,31.1C8.7,31.1,8.7,31.1,8.7,31.1c0.1,1.9,0.2,3.9,0.2,5.8c0.2,6.2,0.4,12.5,0.7,18.7c0,0.1,0,0.2,0,0.3
			c-1.9-1.7-3.7-3.4-5.6-5.2c-0.5-0.5-1-0.9-1.5-1.4c-3.2-3-3.4-8-0.4-11.2C4.3,35.8,6.5,33.4,8.7,31.1z"/>
		<path class="st4" d="M73,26.8c-0.6-0.5-1.2-1-1.7-1.5c-2.5-2.3-5-4.7-7.5-7c-2.1-1.9-4.1-3.8-6.2-5.8c-0.6-0.6-1.2-1.1-1.9-1.7
			c-0.1-0.1-0.1-0.2-0.2-0.3c2.1-0.1,4.2-0.2,6.3-0.2c1.4,0,2.7-0.2,4.1,0c3.7,0.4,6.6,3.4,6.7,7.2c0.1,3,0.2,6.1,0.3,9.1
			C73.1,26.7,73.1,26.7,73,26.8z"/>
		<path class="st4" d="M55.9,75c0,0,0.1,0,0.1,0C56,75,56,75,55.9,75z"/>
	</g>
</g>
</svg>
